<svg xmlns="http://www.w3.org/2000/svg" xmlns:xlink="http://www.w3.org/1999/xlink" viewBox="0 0 1500 1500"><defs><style>.cls-1{fill:url(#radial-gradient);}.cls-2{fill:#fff;}</style><radialGradient id="radial-gradient" cx="750" cy="750" r="982.65" gradientUnits="userSpaceOnUse"><stop offset="0" stop-color="#af0e26"/><stop offset="1" stop-color="#7c141f"/></radialGradient></defs><title>logo</title><g id="Layer_2" data-name="Layer 2"><g id="Layer_1-2" data-name="Layer 1"><rect class="cls-1" width="1500" height="1500"/><path class="cls-2" d="M882.59,1267.39v-75.34q-4.85-8.61-64.71-93.29H778.32q0,.95,32.59,48.3,38.15,54,38.15,56v64.35a.83.83,0,0,0,.94.95h31.77C882.32,1268.34,882.59,1268,882.59,1267.39Z"/><path class="cls-2" d="M1037.75,1255.94q30.82-19.37,30.82-67.9v-88c0-.47-.32-.74-.94-.82H1036.8c-.47,0-.75.27-.82.82v91a63.72,63.72,0,0,1-1.42,15q-8,29.4-35.78,29.4h-5a38.41,38.41,0,0,1-14.05-2.71q-22.68-9.1-22.67-41.69v-91c0-.47-.32-.74-1-.82h-30.7a.86.86,0,0,0-1,.82v95.65a78.93,78.93,0,0,0,6.38,31.18q20.43,41.22,65.18,41.21Q1020.63,1268.1,1037.75,1255.94Z"/><path class="cls-2" d="M396.21,1098.92H360.43q-47.35,118.32-47.35,119.39h-.95q-12.33-32.76-14-35.2l-33.23-84.38-35.21.19,47,119.39h.33q19.8,49,20.89,50.07h29.76Q389.84,1116.16,396.21,1098.92Z"/><path class="cls-2" d="M663.09,1267.33V1099.76a.84.84,0,0,0-.81-.93H631q-.68,0-.93.93v111.12h-.81v-.45c-2.45-3.31-4.84-6.54-7.14-9.71l-2.38-3.21q-40.32-54.66-57.38-78.06c-1-1.31-1.89-2.58-2.75-3.76l-3.86-5.27-.7-1-5.48-7.45h-39l38.28,53,19.15,26.57,1.39,1.92q61.23,84.24,62.12,84.74h30.84C662.83,1268.29,663.09,1268,663.09,1267.33Z"/><polygon class="cls-2" points="554.35 1218.52 519.37 1171.33 519.37 1265.7 554.35 1265.7 554.35 1218.52"/><path class="cls-2" d="M1193.17,1180.9q3.3-4.25,71.09-82.07l-.83-.47h-39.91q-4.73,4.73-57.4,67.43v29.75q0,2.37,15.59,18.9,41.34,47.24,47.24,53.14h40.38a.83.83,0,0,0,1-.95Q1196.82,1184.08,1193.17,1180.9Z"/><polygon class="cls-2" points="1145.11 1256.13 1110.13 1214.79 1110.13 1268.29 1145.11 1268.29 1145.11 1256.13"/><polygon class="cls-2" points="330.55 1274.4 300.62 1274.76 315.79 1289.04 341.97 1289.04 420.27 1098.73 403.02 1098.73 330.55 1274.4"/><path class="cls-2" d="M469.18,1266.45V1100.61c0-.47-.28.08-.83,0H438.12c-.55,0-.87,59.83-.94,60.38v105.46a.83.83,0,0,0,.94.94h30.23C468.9,1267.39,469.18,1267.08,469.18,1266.45Z"/><polygon class="cls-2" points="476.5 1273.53 440.56 1273.53 455.01 1287.35 456.64 1289.04 486.54 1289.04 486.54 1111.75 476.38 1101.48 476.5 1273.53"/><path class="cls-2" d="M737,1266.45V1100.61c0-.47-.27.08-.82,0H706c-.56,0-.87,59.83-1,60.38v105.46a.83.83,0,0,0,1,.94h30.23C736.73,1267.39,737,1267.08,737,1266.45Z"/><polygon class="cls-2" points="741.93 1273.53 708.38 1273.53 722.83 1287.35 724.47 1289.04 754.36 1289.04 754.36 1111.75 744.21 1101.48 741.93 1273.53"/><polygon class="cls-2" points="670.04 1273.53 636.5 1273.53 650.95 1287.35 652.58 1289.04 682.48 1289.04 682.48 1111.75 672.32 1101.48 670.04 1273.53"/><polygon class="cls-2" points="561.08 1273.01 527.19 1273.01 541.13 1286.83 571.95 1286.83 571.95 1237.48 561.08 1226.62 561.08 1273.01"/><polygon class="cls-2" points="1148.71 1273.01 1114.82 1273.01 1128.76 1286.83 1159.58 1286.83 1159.58 1267.59 1148.71 1256.72 1148.71 1273.01"/><polygon class="cls-2" points="889.68 1273.01 855.79 1273.01 869.72 1286.83 900.54 1286.83 900.54 1211.05 889.68 1198.27 889.68 1273.01"/><polygon class="cls-2" points="974.95 1120.02 963.94 1109.63 963.94 1207 974.95 1218 974.95 1120.02"/><path class="cls-2" d="M1075.3,1195.24c0,.52,0,1,0,1.53a120.83,120.83,0,0,1-1,15.65c-3.25,25.44-19.44,47.76-43.29,57.21-34.91,13.82-68-1.53-68-1.53l14,14.4c15,5.77,32.05,5.27,32.05,5.27,18.9,0,45.89-13.57,56.8-25.71,12.18-13.55,20.52-28.13,20.52-46.35V1116.6l-11.1-11.1S1074.67,1165.93,1075.3,1195.24Z"/><polygon class="cls-2" points="1158.13 1202.19 1158.23 1171.11 1143.11 1186.85 1143.02 1212.35 1217.97 1288.24 1249.14 1288.24 1262.96 1274.43 1224.82 1274.43 1158.13 1202.19"/><path class="cls-2" d="M790.32,771,586.38,621.29l-89.27,65.54A175.63,175.63,0,0,0,705,970L936.76,799.84A175.24,175.24,0,0,1,790.32,771Z"/><path class="cls-2" d="M877.23,661.75h3.34v22.42q0,7-6.37,7a5.74,5.74,0,0,1-5.61-3.79q-1.68-3.78-1.67-12c0-4.83.77-8.32,2.28-10.45S873.39,661.75,877.23,661.75Z"/><path class="cls-2" d="M1002.91,463.72,705,245A175.63,175.63,0,1,0,497.1,528.16l298,218.71a175.62,175.62,0,1,0,207.84-283.15Zm-122,252.88q-20,0-29.85-10.46t-9.86-31.67q0-17.57,7.43-26.82t20.46-9.24a51.8,51.8,0,0,1,8.79.6V595.37q0-8.18-19.39-13l-8.49-9.7V537.19q0-20.61,20.9-20.61,13.64,0,22,4.69c5.57,3.14,8.44,4.7,8.64,4.7a.81.81,0,0,0,.92-.91V498.4h32.12v31.81c0,8.91-2.28,15.46-6.83,19.71s-10.95,6.37-19.24,6.37h-3c-.61,0-2.87-1-6.81-3a24.41,24.41,0,0,0-11.07-3c-2.43,0-4.09.3-5,.91s-1.36,1.72-1.36,3.33v8.79a73.73,73.73,0,0,1,26.67,10.15q12.4,7.74,12.43,18V679q0,18.5-10.16,28T880.87,716.6ZM935.65,679q0,18.48-10.16,28c-5.14,4.83-12,7.77-20.55,8.93a53,53,0,0,0,11.64-7.39c7.26-5.88,9.55-17.24,9.55-29.56V591.42c0-6.88-3.21-14.62-11.47-19.77-5.7-3.54-11.95-5.85-18.68-7.89,9.48,1.63,19,4.47,27.24,9.62s12.43,11.16,12.43,18ZM949.9,530.21q0,13.32-6.8,19.67c-4.08,3.8-9.62,5.88-16.64,6.28,2.71-1.78,5-2.89,7.15-4.93,4.57-4.22,6.78-12.14,6.78-21V498.4h9.51Z"/></g></g></svg>