<svg xmlns="http://www.w3.org/2000/svg" viewBox="0 0 832.17 862.18"><defs><style>.cls-1{fill:#7c141f;}.cls-2{fill:#fff;}</style></defs><title>viniyuk</title><g id="Layer_2" data-name="Layer 2"><g id="Layer_1-2" data-name="Layer 1"><path class="cls-1" d="M438.73,710h31.64q47.88,67.71,51.75,74.6v60.26q0,.75-.66.75h-25.4a.67.67,0,0,1-.76-.75V793.4q0-1.6-30.5-44.77Q438.73,710.77,438.73,710Z"/><path class="cls-1" d="M556.4,710.38H581c.5.07.76.29.76.67v72.81q0,26.07,18.13,33.34a30.87,30.87,0,0,0,11.24,2.17h4q22.2,0,28.62-23.52a51.48,51.48,0,0,0,1.13-12V711.05c.06-.44.29-.67.66-.67H670.1c.5.07.76.29.76.67V781.4q0,38.82-24.65,54.31-13.69,9.72-33.34,9.72-35.79,0-52.13-33a63,63,0,0,1-5.1-24.93V711.05A.7.7,0,0,1,556.4,710.38Z"/><path class="cls-1" d="M78.37,845.65Q128,723.93,133.15,710.13H104.53q-37.86,94.64-37.87,95.48h-.75Q56,779.42,54.74,777.46L28.16,710,0,710.13l37.6,95.48h.27q15.84,39.17,16.7,40Z"/><path class="cls-1" d="M346.58,710.8v134c0,.51-.21.76-.65.76H321.27q-.72-.42-49.68-67.77l-1.11-1.53L255.17,755l-30.62-42.42h31.21l4.39,6,.55.77,3.09,4.22c.69.93,1.42,2,2.2,3q13.65,18.72,45.89,62.43l1.9,2.57c1.84,2.53,3.76,5.11,5.71,7.76v.36h.65V710.8c.14-.5.38-.74.75-.74h25A.67.67,0,0,1,346.58,710.8Z"/><polygon class="cls-1" points="231.64 768.04 231.64 843.51 259.62 843.51 259.62 805.78 231.64 768.04"/><path class="cls-1" d="M827.35,710.06q-54.2,62.24-56.85,65.64,2.93,2.53,61.67,68.56a.67.67,0,0,1-.76.75H799.12q-4.73-4.71-37.78-42.49-12.47-13.23-12.47-15.11v-23.8q42.14-50.15,45.9-53.93h31.92Z"/><polygon class="cls-1" points="704.09 802.8 704.09 845.58 732.07 845.58 732.07 835.85 704.09 802.8"/><polygon class="cls-1" points="68.83 862.18 56.7 850.75 80.64 850.47 138.6 709.98 152.39 709.98 89.77 862.18 68.83 862.18"/><path class="cls-1" d="M166.67,711.48h24.17c.44.07.66-.37.66,0V844.11q0,.75-.66.75H166.67a.67.67,0,0,1-.76-.75V759.77C166,759.33,166.22,711.48,166.67,711.48Z"/><polygon class="cls-1" points="180.17 860.83 168.62 849.77 197.36 849.77 197.26 712.18 205.38 720.39 205.38 862.18 181.48 862.18 180.17 860.83"/><path class="cls-1" d="M380.85,711.48H405c.44.07.66-.37.66,0V844.11q0,.75-.66.75H380.85a.66.66,0,0,1-.75-.75V759.77C380.16,759.33,380.41,711.48,380.85,711.48Z"/><polygon class="cls-1" points="394.36 860.83 382.81 849.77 409.63 849.77 411.45 712.18 419.57 720.39 419.57 862.18 395.67 862.18 394.36 860.83"/><polygon class="cls-1" points="336.87 860.83 325.32 849.77 352.14 849.77 353.96 712.18 362.08 720.39 362.08 862.18 338.18 862.18 336.87 860.83"/><polygon class="cls-1" points="249.04 860.4 237.9 849.36 265 849.36 265 812.26 273.69 820.94 273.69 860.4 249.04 860.4"/><polygon class="cls-1" points="718.99 860.4 707.85 849.36 734.95 849.36 734.95 836.33 743.64 845.02 743.64 860.4 718.99 860.4"/><polygon class="cls-1" points="511.83 860.4 500.69 849.36 527.79 849.36 527.79 789.58 536.48 799.8 536.48 860.4 511.83 860.4"/><polygon class="cls-1" points="587.18 718.7 587.18 796.57 595.98 805.36 595.98 727.01 587.18 718.7"/><path class="cls-1" d="M586.43,845.43s26.5,12.28,54.42,1.22c19.07-7.55,32-25.4,34.62-45.75a97.16,97.16,0,0,0,.78-12.51c0-.41,0-.82,0-1.23-.51-23.44,0-71.77,0-71.77l8.88,8.88v79.27c0,14.57-6.67,26.22-16.41,37.06-8.73,9.71-30.31,20.56-45.43,20.56,0,0-13.65.4-25.63-4.21Z"/><polygon class="cls-1" points="730.47 780.45 730.4 800.84 790.33 861.54 815.27 861.54 826.32 850.49 795.81 850.49 742.48 792.72 742.56 767.87 730.47 780.45"/><path class="cls-1" d="M531.33,475.16A140,140,0,0,0,565.44,471L380.07,607A140.46,140.46,0,0,1,213.84,380.57l71.39-52.41L448.33,447.9A139.92,139.92,0,0,0,531.33,475.16Z"/><path class="cls-1" d="M670.88,351.91a140.44,140.44,0,0,1-218.75,76.68L213.84,253.68A140.46,140.46,0,0,1,380.07,27.23L618.34,202.14A140.47,140.47,0,0,1,670.88,351.91Z"/><path class="cls-2" d="M563.64,229.87v25.45q0,10.67-5.45,15.76t-15.39,5.08h-2.43c-.48,0-2.3-.8-5.45-2.42a19.57,19.57,0,0,0-8.85-2.42,7.78,7.78,0,0,0-4,.72,3,3,0,0,0-1.1,2.67v7a58.56,58.56,0,0,1,21.33,8.12q9.93,6.18,9.94,14.42v70q0,14.79-8.12,22.42t-23.39,7.63q-16,0-23.87-8.36T489,370.69q0-14.06,5.94-21.45t16.36-7.4a41.11,41.11,0,0,1,7,.49v-34.9q0-6.54-15.51-10.42L496,289.25V260.9q0-16.48,16.72-16.48,10.9,0,17.57,3.75t6.91,3.76a.64.64,0,0,0,.73-.73V229.87ZM520.5,378.44V360.51h-2.67c-3.07,0-5.21.84-6.42,2.54s-1.82,4.49-1.82,8.36q0,6.55,1.34,9.58a4.58,4.58,0,0,0,4.48,3Q520.49,384,520.5,378.44Z"/><path class="cls-2" d="M568.34,229.87v25.45c0,7.09-1.76,13.43-5.42,16.81a37.33,37.33,0,0,1-5.72,3.94c5.62-.32,10-2,13.31-5,3.63-3.38,5.44-8.64,5.44-15.73V229.87Z"/><path class="cls-2" d="M554.62,289.84c-6.61-4.12-14.21-6.39-21.79-7.69a61.8,61.8,0,0,1,14.94,6.31A18.48,18.48,0,0,1,557,304.27v70c0,9.86-1.83,18.95-7.64,23.65a41.9,41.9,0,0,1-9.32,5.9c6.84-.92,12.34-3.27,16.44-7.13q8.12-7.64,8.12-22.42v-70Q564.55,296,554.62,289.84Z"/></g></g></svg>