<svg xmlns="http://www.w3.org/2000/svg" viewBox="0 0 832.17 152.5"><defs><style>.cls-1{fill:#fff;}</style></defs><title>white_viniyuk_name</title><g id="Layer_2" data-name="Layer 2"><g id="Layer_1-2" data-name="Layer 1"><path class="cls-1" d="M438.73.33h31.64Q518.25,68,522.12,74.93v60.25c0,.51-.22.76-.66.76h-25.4a.67.67,0,0,1-.76-.76V83.72q0-1.6-30.5-44.77Q438.73,1.07,438.73.33Z"/><path class="cls-1" d="M556.4.7H581c.5.07.76.29.76.66V74.18q0,26.05,18.13,33.33a30.68,30.68,0,0,0,11.24,2.18h4q22.2,0,28.62-23.52a51.48,51.48,0,0,0,1.13-12V1.36c.06-.44.29-.66.66-.66H670.1c.5.07.76.29.76.66V71.72q0,38.82-24.65,54.3-13.69,9.74-33.34,9.73-35.79,0-52.13-33a63,63,0,0,1-5.1-24.93V1.36A.69.69,0,0,1,556.4.7Z"/><path class="cls-1" d="M78.37,136Q128,14.23,133.15.45H104.53Q66.67,95.07,66.66,95.93h-.75Q56,69.72,54.74,67.78L28.16.3,0,.45,37.6,95.93h.27q15.84,39.15,16.7,40Z"/><path class="cls-1" d="M346.58,1.12v134c0,.51-.21.76-.65.76H321.27q-.72-.43-49.68-67.77l-1.11-1.53L255.17,45.35,224.55,2.93h31.21l4.39,6,.55.77,3.09,4.21c.69.94,1.42,2,2.2,3q13.65,18.72,45.89,62.43l1.9,2.57c1.84,2.53,3.76,5.11,5.71,7.76V90h.65V1.12c.14-.5.38-.75.75-.75h25A.68.68,0,0,1,346.58,1.12Z"/><polygon class="cls-1" points="231.64 58.36 231.64 133.83 259.62 133.83 259.62 96.09 231.64 58.36"/><path class="cls-1" d="M827.35.38Q773.16,62.61,770.5,66q2.93,2.55,61.67,68.57a.67.67,0,0,1-.76.75H799.12q-4.73-4.72-37.78-42.5-12.47-13.22-12.47-15.11V53.92Q791,3.77,794.77,0h31.92Z"/><polygon class="cls-1" points="704.09 93.12 704.09 135.9 732.07 135.9 732.07 126.17 704.09 93.12"/><polygon class="cls-1" points="68.83 152.5 56.7 141.07 80.64 140.79 138.6 0.3 152.39 0.3 89.77 152.5 68.83 152.5"/><path class="cls-1" d="M166.67,1.8h24.17c.44.07.66-.37.66,0V134.43q0,.75-.66.75H166.67a.67.67,0,0,1-.76-.75V50.09C166,49.65,166.22,1.8,166.67,1.8Z"/><polygon class="cls-1" points="180.17 151.14 168.62 140.09 197.36 140.09 197.26 2.5 205.38 10.71 205.38 152.5 181.48 152.5 180.17 151.14"/><path class="cls-1" d="M380.85,1.8H405c.44.07.66-.37.66,0V134.43q0,.75-.66.75H380.85a.66.66,0,0,1-.75-.75V50.09C380.16,49.65,380.41,1.8,380.85,1.8Z"/><polygon class="cls-1" points="394.36 151.14 382.81 140.09 409.63 140.09 411.45 2.5 419.57 10.71 419.57 152.5 395.67 152.5 394.36 151.14"/><polygon class="cls-1" points="336.87 151.14 325.32 140.09 352.14 140.09 353.96 2.5 362.08 10.71 362.08 152.5 338.18 152.5 336.87 151.14"/><polygon class="cls-1" points="249.04 150.72 237.9 139.67 265 139.67 265 102.57 273.69 111.26 273.69 150.72 249.04 150.72"/><polygon class="cls-1" points="718.99 150.72 707.85 139.67 734.95 139.67 734.95 126.65 743.64 135.34 743.64 150.72 718.99 150.72"/><polygon class="cls-1" points="511.83 150.72 500.69 139.67 527.79 139.67 527.79 79.9 536.48 90.12 536.48 150.72 511.83 150.72"/><polygon class="cls-1" points="587.18 9.01 587.18 86.88 595.98 95.68 595.98 17.32 587.18 9.01"/><path class="cls-1" d="M586.43,135.75S612.93,148,640.85,137c19.07-7.55,32-25.4,34.62-45.75a97.39,97.39,0,0,0,.78-12.51c0-.41,0-.82,0-1.23-.51-23.44,0-71.77,0-71.77l8.88,8.88V93.85c0,14.58-6.67,26.23-16.41,37.07-8.73,9.71-30.31,20.56-45.43,20.56,0,0-13.65.4-25.63-4.21Z"/><polygon class="cls-1" points="730.47 70.77 730.4 91.16 790.33 151.86 815.27 151.86 826.32 140.81 795.81 140.81 742.48 83.04 742.56 58.18 730.47 70.77"/></g></g></svg>