<svg xmlns="http://www.w3.org/2000/svg" viewBox="0 0 519.22 634.25"><defs><style>.cls-1{fill:#fff;}</style></defs><title>white_viniyuk_symbol</title><g id="Layer_2" data-name="Layer 2"><g id="Layer_1-2" data-name="Layer 1"><path class="cls-1" d="M374.85,475.16A140.08,140.08,0,0,0,409,471L223.6,607A140.46,140.46,0,1,1,57.36,380.57l71.4-52.41L291.85,447.9A139.94,139.94,0,0,0,374.85,475.16Z"/><path class="cls-1" d="M461.86,202.14,223.6,27.23A140.46,140.46,0,1,0,57.36,253.68L295.65,428.59A140.45,140.45,0,1,0,461.86,202.14ZM364.27,404.37q-16,0-23.87-8.36t-7.88-25.32q0-14.06,5.93-21.45t16.36-7.4a41.11,41.11,0,0,1,7,.49v-34.9q0-6.54-15.51-10.42l-6.78-7.76V260.9q0-16.48,16.72-16.48,10.91,0,17.57,3.75t6.91,3.76a.64.64,0,0,0,.72-.73V229.87h25.69v25.45q0,10.67-5.45,15.76t-15.39,5.08H383.9c-.49,0-2.3-.8-5.46-2.42a19.57,19.57,0,0,0-8.84-2.42,7.82,7.82,0,0,0-4,.72,3,3,0,0,0-1.09,2.67v7a58.7,58.7,0,0,1,21.33,8.12q9.93,6.18,9.93,14.42v70q0,14.79-8.11,22.42T364.27,404.37Zm43.81-30.07q0,14.79-8.13,22.42c-4.1,3.86-9.59,6.21-16.43,7.13a41.83,41.83,0,0,0,9.31-5.9c5.81-4.7,7.64-13.79,7.64-23.65v-70a18.46,18.46,0,0,0-9.18-15.81,61.64,61.64,0,0,0-14.94-6.31c7.58,1.3,15.19,3.57,21.79,7.69s9.94,8.93,9.94,14.43Zm11.39-119c0,7.09-1.81,12.35-5.44,15.73-3.26,3-7.69,4.7-13.31,5a37.94,37.94,0,0,0,5.73-3.94c3.65-3.38,5.42-9.72,5.42-16.81V229.87h7.6Z"/><path class="cls-1" d="M354.94,363.05q-1.81,2.55-1.82,8.36,0,6.55,1.33,9.58a4.59,4.59,0,0,0,4.48,3q5.1,0,5.1-5.58V360.51h-2.67C358.29,360.51,356.15,361.35,354.94,363.05Z"/></g></g></svg>