<?xml version="1.0" encoding="utf-8"?>
<!-- Generator: Adobe Illustrator 24.0.2, SVG Export Plug-In . SVG Version: 6.00 Build 0)  -->
<svg version="1.1" id="Layer_1" xmlns="http://www.w3.org/2000/svg" xmlns:xlink="http://www.w3.org/1999/xlink" x="0px" y="0px"
	 viewBox="0 0 1500 174.6" style="enable-background:new 0 0 1500 174.6;" xml:space="preserve">
<style type="text/css">
	.st0{fill:#910C1F;}
	.st1{fill:#FFFFFF;}
</style>
<title>2_3_footer</title>
<g id="Layer_2_1_">
	<g id="Layer_1-2">
		<rect class="st0" width="1500" height="174.6"/>
		<path class="st1" d="M82.1,101.3l-6.7-6.8c-0.6-0.6-1.5-0.7-2.2-0.3l-5.4,2.9c-4.6-5-7.2-11.4-7.6-18.1l5.9-1.8
			c0.8-0.2,1.3-1,1.3-1.8l-0.2-9.5c0-0.9-0.7-1.7-1.6-1.8l-8.3-1.4c-0.9-0.1-1.7,0.4-2,1.1c-7.6,18.6,1.3,39.8,19.8,47.4l0,0
			c0.8,0.3,1.7,0.1,2.3-0.7l4.8-6.8C82.9,103,82.8,102,82.1,101.3L82.1,101.3z"/>
	</g>
</g>
<g>
	<path class="st1" d="M796.8,79.1c-1.2,0.9-1.8,2.2-1.8,3.9c0,2.4,1.2,4.3,3.5,5.5s5,2,8.1,2.4c0.1-0.9,0.6-1.7,1.3-2.2
		c0.7-0.6,1.6-0.8,2.7-0.8c1.3,0,2.3,0.3,3,0.9c0.7,0.6,1.1,1.5,1.1,2.6c0,0.9-0.2,1.6-0.7,2.2c-0.4,0.6-1,1-1.7,1.2v3.9
		c0,2.9-0.9,5.2-2.7,6.8s-4.4,2.4-7.6,2.4c-3.4,0-6-0.8-7.8-2.4c-1.8-1.6-2.7-3.9-2.7-6.8v-2.8h5.7v3.4c0,2.5,1.6,3.8,4.9,3.8
		c1.4,0,2.5-0.3,3.3-1s1.2-1.6,1.2-2.9v-4.1c-2.8-0.1-5.5-0.7-8.1-1.6c-2.7-0.9-4.9-2.3-6.6-4.1c-1.8-1.8-2.6-4-2.6-6.5
		c0-3.3,1.1-5.7,3.4-7.5s5.5-2.6,9.8-2.6c4.1,0,7.3,0.8,9.5,2.5s3.3,4,3.3,7.1v0.5l-4.7,0.6l-1.2-1.1c0-1.5-0.6-2.6-1.8-3.4
		c-1.2-0.8-2.9-1.2-5.2-1.2C799.9,77.8,798.1,78.2,796.8,79.1z"/>
	<path class="st1" d="M808.3,58.7c2.7,1.6,5,3.9,6.8,6.8l-1.3,2.8h-18.2c-2,0-3.5-0.4-4.6-1.3c-1.1-0.9-1.6-2.1-1.6-3.7
		c0-2,0.9-3.7,2.6-5c1.8-1.3,4.2-2,7.2-2C802.5,56.3,805.6,57.1,808.3,58.7z M809.2,64.4c-1.5-1.2-3.1-2.1-4.7-2.7
		c-1.6-0.6-3.3-0.9-5.2-0.9c-1.5,0-2.6,0.3-3.4,0.8c-0.8,0.5-1.1,1.1-1.1,1.8c0,0.7,0.4,1.1,1.2,1.1h13.2V64.4z"/>
	<path class="st1" d="M866.2,75.5c1.8,1.6,2.6,4.1,2.6,7.5v24.7h-5.9V82.4c0-3-1.6-4.5-4.8-4.5h-3.5l-4.6,2.5c0,0.2,0.1,0.5,0.1,1
		v26.3h-5.9V82c0-0.4,0-0.8-0.1-1.1s-0.3-0.6-0.6-0.9l-1.4-1.4l-3.5,3.4h-1.8l-3.5-3.4l-1.4,1.4c-0.5,0.5-0.8,1.2-0.8,2v12.9
		c0.9-0.2,1.5-0.3,1.9-0.3c1.6,0,2.9,0.5,3.8,1.5s1.3,2.5,1.3,4.6c0,4.9-2.2,7.3-6.6,7.3c-2,0-3.6-0.5-4.7-1.6
		c-1.1-1.1-1.6-2.6-1.6-4.7V81.4c0-0.8,0.1-1.5,0.4-2.2c0.3-0.6,0.7-1.2,1.2-1.7l4.7-4.5h2l4.1,4l4.1-4h2l4,3.7l6.6-3.7h3.9
		C861.8,73.1,864.4,73.9,866.2,75.5z M867.2,113c1.1,1.1,1.6,2.6,1.6,4.5c0,2.5-0.9,4.5-2.7,5.9s-4.2,2.1-7.3,2.1
		c-2.9,0-5.7-0.4-8.4-1.2s-5.6-2-8.6-3.5c-2.9-1.4-5.4-2.5-7.4-3.2s-4.2-1-6.5-1h-1.4v-4.7h1.4c2.7,0,5.3,0.4,7.7,1.2
		s5.2,1.9,8.4,3.5c2.8,1.4,5.3,2.4,7.6,3.1c2.3,0.7,4.6,1.1,6.9,1.1c1.6,0,2.8-0.3,3.7-0.8c0.9-0.6,1.3-1.3,1.3-2.3
		c0-0.6-0.2-1-0.5-1.3s-0.7-0.5-1.2-0.5c-0.7,0-1.2,0.2-1.4,0.5l-1.3-0.3l-1.1-3.2c0.8-0.6,1.5-1,2.3-1.2s1.6-0.3,2.6-0.3
		C864.7,111.3,866.1,111.9,867.2,113z M833.3,98.9c-0.3-0.4-0.7-0.5-1.4-0.5h-1.1v4.1c0,1,0.4,1.5,1.3,1.5c0.6,0,1-0.2,1.2-0.7
		c0.3-0.5,0.4-1.3,0.4-2.4C833.6,99.9,833.5,99.3,833.3,98.9z"/>
	<path class="st1" d="M881.2,78.2c-0.1,0.1-0.2,0.4-0.2,0.8v1.7c1.2,0.3,2.2,0.9,3.1,1.7s1.2,1.8,1.2,2.9v16.5l6-5.5h1.9l6,5.5v-6.2
		c-0.5,0.1-0.9,0.2-1.4,0.2c-1.7,0-3.1-0.6-4.1-1.8s-1.6-2.8-1.6-4.9c0-2.1,0.6-3.7,1.7-4.8c1.1-1.1,2.8-1.7,4.8-1.7
		c2.1,0,3.7,0.5,4.8,1.5s1.7,2.4,1.7,4.3v19.3h-5.9l-7-6.5l-7,6.5h-5.9V85.6c0-1.2-0.5-1.9-1.6-2.2l-1.3-1.9V77
		c0-2.6,1.3-3.9,3.9-3.9h5.5c1.3,0,2.5,0.1,3.7,0.4s2.4,0.7,3.8,1.2c1.1,0.4,1.9,0.7,2.6,0.9c0.6,0.2,1.3,0.3,1.9,0.3
		c0.8,0,1.3-0.2,1.6-0.6c0.3-0.4,0.5-1,0.5-1.8v-3.6h5.3v3.4c0,2.4-0.6,4.2-1.7,5.3s-3,1.7-5.5,1.7c-1,0-1.9-0.1-2.7-0.3
		s-1.9-0.4-3.1-0.8c-1.4-0.4-2.5-0.7-3.5-0.9s-2-0.3-3.2-0.3H882C881.6,78,881.3,78,881.2,78.2z M898.5,92.1h1v-3.9
		c0-0.5-0.1-0.9-0.4-1.2c-0.3-0.3-0.6-0.4-1-0.4c-1,0-1.6,0.8-1.6,2.5C896.5,91.1,897.2,92.1,898.5,92.1z"/>
	<path class="st1" d="M904.5,112.1v13.7h-4.9v-5.5c-1.2,1.6-2.6,3-4.4,4.1c-1.8,1.1-3.7,1.6-5.8,1.6c-2.7,0-4.9-0.7-6.6-2.1
		c-1.7-1.4-2.7-3.3-3-5.6l1-1.6c1.5-0.5,3.1-1.3,4.7-2.4c1.6-1.1,2.8-2.3,3.7-3.6h0.6l3.1,2.3c-0.8,1.6-1.8,2.9-3.2,4.1
		c-1.4,1.2-2.9,1.9-4.3,2.2c0.6,1.3,2.1,2,4.3,2s4.1-0.7,5.8-2.1c1.7-1.4,3.1-3,4.1-4.9v-2.1L904.5,112.1L904.5,112.1z"/>
	<path class="st1" d="M915.8,84.4c-1.2-1.2-1.8-2.8-1.8-4.8s0.6-3.6,1.8-4.8s2.8-1.8,4.8-1.8s3.6,0.6,4.8,1.8s1.8,2.8,1.8,4.8
		s-0.6,3.6-1.8,4.8s-2.8,1.8-4.8,1.8S917,85.6,915.8,84.4z M915.8,105.7c-1.2-1.2-1.8-2.8-1.8-4.8s0.6-3.6,1.8-4.8s2.8-1.8,4.8-1.8
		s3.6,0.6,4.8,1.8s1.8,2.8,1.8,4.8s-0.6,3.6-1.8,4.8s-2.8,1.8-4.8,1.8S917,106.9,915.8,105.7z M922.3,81.5c0.4-0.5,0.7-1.1,0.7-1.9
		c0-0.8-0.2-1.5-0.6-1.9c-0.4-0.5-1-0.7-1.8-0.7c-0.7,0-1.3,0.2-1.7,0.7s-0.6,1.1-0.6,1.9c0,0.8,0.2,1.4,0.6,1.9
		c0.4,0.5,1,0.7,1.7,0.7C921.3,82.2,921.9,81.9,922.3,81.5z M922.3,102.7c0.4-0.5,0.7-1.1,0.7-1.9c0-0.8-0.2-1.4-0.7-1.9
		c-0.4-0.5-1-0.7-1.7-0.7s-1.3,0.2-1.7,0.7s-0.6,1.1-0.6,1.9c0,0.8,0.2,1.4,0.6,1.9c0.4,0.5,1,0.7,1.7,0.7S921.9,103.2,922.3,102.7z
		"/>
	<path class="st1" d="M958.1,79.1c-1.2,0.9-1.8,2.2-1.8,3.9c0,2.4,1.2,4.3,3.5,5.5s5,2,8.1,2.4c0.1-0.9,0.6-1.7,1.3-2.2
		c0.7-0.6,1.6-0.8,2.7-0.8c1.3,0,2.3,0.3,3,0.9c0.7,0.6,1.1,1.5,1.1,2.6c0,0.9-0.2,1.6-0.7,2.2c-0.4,0.6-1,1-1.7,1.2v3.9
		c0,2.9-0.9,5.2-2.7,6.8s-4.4,2.4-7.6,2.4c-3.4,0-6-0.8-7.8-2.4c-1.8-1.6-2.7-3.9-2.7-6.8v-2.8h5.7v3.4c0,2.5,1.6,3.8,4.9,3.8
		c1.4,0,2.5-0.3,3.3-1s1.2-1.6,1.2-2.9v-4.1c-2.8-0.1-5.5-0.7-8.1-1.6c-2.7-0.9-4.9-2.3-6.6-4.1c-1.8-1.8-2.6-4-2.6-6.5
		c0-3.3,1.1-5.7,3.4-7.5s5.5-2.6,9.8-2.6c4.1,0,7.3,0.8,9.5,2.5s3.3,4,3.3,7.1v0.5l-4.7,0.6l-1.2-1.1c0-1.5-0.6-2.6-1.8-3.4
		c-1.2-0.8-2.9-1.2-5.2-1.2C961.1,77.8,959.3,78.2,958.1,79.1z"/>
	<path class="st1" d="M969.6,58.7c2.7,1.6,5,3.9,6.8,6.8l-1.3,2.8h-18.2c-2,0-3.5-0.4-4.6-1.3c-1.1-0.9-1.6-2.1-1.6-3.7
		c0-2,0.9-3.7,2.6-5c1.8-1.3,4.2-2,7.2-2C963.8,56.3,966.8,57.1,969.6,58.7z M970.4,64.4c-1.5-1.2-3.1-2.1-4.7-2.7
		c-1.6-0.6-3.3-0.9-5.2-0.9c-1.5,0-2.6,0.3-3.4,0.8c-0.8,0.5-1.1,1.1-1.1,1.8c0,0.7,0.4,1.1,1.2,1.1h13.2V64.4z"/>
	<path class="st1" d="M1027.4,75.5c1.8,1.6,2.6,4.1,2.6,7.5v24.7h-5.9V82.4c0-3-1.6-4.5-4.8-4.5h-3.5l-4.6,2.5c0,0.2,0.1,0.5,0.1,1
		v26.3h-5.9V82c0-0.4,0-0.8-0.1-1.1s-0.3-0.6-0.6-0.9l-1.4-1.4l-3.5,3.4H998l-3.5-3.4L993,80c-0.5,0.5-0.8,1.2-0.8,2v12.9
		c0.9-0.2,1.5-0.3,1.9-0.3c1.6,0,2.9,0.5,3.8,1.5s1.3,2.5,1.3,4.6c0,4.9-2.2,7.3-6.6,7.3c-2,0-3.6-0.5-4.7-1.6
		c-1.1-1.1-1.6-2.6-1.6-4.7V81.4c0-0.8,0.1-1.5,0.4-2.2c0.3-0.6,0.7-1.2,1.2-1.7l4.7-4.5h2l4.1,4l4.1-4h2l4,3.7l6.6-3.7h3.9
		C1023,73.1,1025.7,73.9,1027.4,75.5z M1028.4,113c1.1,1.1,1.6,2.6,1.6,4.5c0,2.5-0.9,4.5-2.7,5.9c-1.8,1.4-4.2,2.1-7.3,2.1
		c-2.9,0-5.7-0.4-8.4-1.2s-5.6-2-8.6-3.5c-2.9-1.4-5.4-2.5-7.4-3.2s-4.2-1-6.5-1h-1.4v-4.7h1.4c2.7,0,5.3,0.4,7.7,1.2
		s5.2,1.9,8.4,3.5c2.8,1.4,5.3,2.4,7.6,3.1c2.3,0.7,4.6,1.1,6.9,1.1c1.6,0,2.8-0.3,3.7-0.8c0.9-0.6,1.3-1.3,1.3-2.3
		c0-0.6-0.2-1-0.5-1.3c-0.3-0.3-0.7-0.5-1.2-0.5c-0.7,0-1.2,0.2-1.4,0.5l-1.3-0.3l-1.1-3.2c0.8-0.6,1.5-1,2.3-1.2s1.6-0.3,2.6-0.3
		C1025.9,111.3,1027.4,111.9,1028.4,113z M994.5,98.9c-0.3-0.4-0.7-0.5-1.4-0.5H992v4.1c0,1,0.4,1.5,1.3,1.5c0.6,0,1-0.2,1.2-0.7
		c0.3-0.5,0.4-1.3,0.4-2.4C994.9,99.9,994.8,99.3,994.5,98.9z"/>
	<path class="st1" d="M1043.5,83.9c-2-1.3-3.1-3.2-3.1-5.6c0-1.8,0.5-3.1,1.4-4.1s2.3-1.4,4.1-1.4c1,0,1.9,0.1,2.7,0.3
		c0.8,0.2,1.6,0.6,2.4,1.2l-1,3l-1.2,0.2c-0.4-0.3-0.8-0.5-1.2-0.5c-0.4,0-0.8,0.1-1,0.3s-0.3,0.5-0.3,0.9c0,0.9,0.5,1.6,1.6,2.1
		s2.5,0.8,4.3,0.8c2.8,0,4.9-0.8,6.4-2.3c1.5-1.6,2.3-3.6,2.3-6V70h5.6v2.8c0,2.6-0.6,4.9-1.8,6.9c-1.2,1.9-2.9,3.4-5.1,4.5
		c-2.2,1-4.7,1.6-7.6,1.6C1048.3,85.9,1045.5,85.2,1043.5,83.9z M1040.6,88.3h5.9v13.4l6-5.5h1.9l6,5.5V88.3h5.9v19.4h-5.9l-7-6.5
		l-7,6.5h-5.9L1040.6,88.3L1040.6,88.3z"/>
	<path class="st1" d="M1066.3,55.6v10.1l-1.3,2.6h-18.2c-2,0-3.5-0.4-4.6-1.3c-1.1-0.9-1.6-2.1-1.6-3.7c0-2,0.9-3.7,2.6-5
		c1.8-1.3,4.2-2,7.2-2c4.3,0,8.2,1.5,11.6,4.6v-5.4L1066.3,55.6L1066.3,55.6z M1060.4,64.4c-1.5-1.2-3.1-2.1-4.7-2.7
		c-1.6-0.6-3.3-0.9-5.2-0.9c-1.5,0-2.6,0.3-3.4,0.8s-1.1,1.1-1.1,1.8c0,0.7,0.4,1.1,1.2,1.1h13.2V64.4z"/>
	<path class="st1" d="M1098.3,79.1c-1.2,0.9-1.8,2.2-1.8,3.9c0,2.4,1.2,4.3,3.5,5.5s5,2,8.1,2.4c0.1-0.9,0.6-1.7,1.3-2.2
		c0.7-0.6,1.6-0.8,2.7-0.8c1.3,0,2.3,0.3,3,0.9c0.7,0.6,1.1,1.5,1.1,2.6c0,0.9-0.2,1.6-0.7,2.2c-0.4,0.6-1,1-1.7,1.2v3.9
		c0,2.9-0.9,5.2-2.7,6.8c-1.8,1.6-4.4,2.4-7.6,2.4c-3.4,0-6-0.8-7.8-2.4c-1.8-1.6-2.7-3.9-2.7-6.8v-2.8h5.7v3.4
		c0,2.5,1.6,3.8,4.9,3.8c1.4,0,2.5-0.3,3.3-1s1.2-1.6,1.2-2.9v-4.1c-2.8-0.1-5.5-0.7-8.1-1.6c-2.7-0.9-4.9-2.3-6.6-4.1
		c-1.8-1.8-2.6-4-2.6-6.5c0-3.3,1.1-5.7,3.4-7.5s5.5-2.6,9.8-2.6c4.1,0,7.3,0.8,9.5,2.5s3.3,4,3.3,7.1v0.5l-4.7,0.6l-1.2-1.1
		c0-1.5-0.6-2.6-1.8-3.4c-1.2-0.8-2.9-1.2-5.2-1.2C1101.4,77.8,1099.5,78.2,1098.3,79.1z"/>
	<path class="st1" d="M1109.8,58.7c2.7,1.6,5,3.9,6.8,6.8l-1.3,2.8H1097c-2,0-3.5-0.4-4.6-1.3c-1.1-0.9-1.6-2.1-1.6-3.7
		c0-2,0.9-3.7,2.6-5c1.8-1.3,4.2-2,7.2-2C1104,56.3,1107.1,57.1,1109.8,58.7z M1110.7,64.4c-1.5-1.2-3.1-2.1-4.7-2.7
		c-1.6-0.6-3.3-0.9-5.2-0.9c-1.5,0-2.6,0.3-3.4,0.8s-1.1,1.1-1.1,1.8c0,0.7,0.4,1.1,1.2,1.1h13.2V64.4z"/>
	<path class="st1" d="M1167.7,75.5c1.8,1.6,2.6,4.1,2.6,7.5v24.7h-5.9V82.4c0-3-1.6-4.5-4.8-4.5h-3.5l-4.6,2.5c0,0.2,0.1,0.5,0.1,1
		v26.3h-5.9V82c0-0.4,0-0.8-0.1-1.1s-0.3-0.6-0.6-0.9l-1.4-1.4l-3.5,3.4h-1.8l-3.5-3.4l-1.4,1.4c-0.5,0.5-0.8,1.2-0.8,2v12.9
		c0.9-0.2,1.5-0.3,1.9-0.3c1.6,0,2.9,0.5,3.8,1.5s1.3,2.5,1.3,4.6c0,4.9-2.2,7.3-6.6,7.3c-2,0-3.6-0.5-4.7-1.6s-1.6-2.6-1.6-4.7
		V81.4c0-0.8,0.1-1.5,0.4-2.2c0.3-0.6,0.7-1.2,1.2-1.7l4.7-4.5h2l4.1,4l4.1-4h2l4,3.7l6.6-3.7h3.9
		C1163.3,73.1,1165.9,73.9,1167.7,75.5z M1168.7,113c1.1,1.1,1.6,2.6,1.6,4.5c0,2.5-0.9,4.5-2.7,5.9c-1.8,1.4-4.2,2.1-7.3,2.1
		c-2.9,0-5.7-0.4-8.4-1.2c-2.7-0.8-5.6-2-8.6-3.5c-2.9-1.4-5.4-2.5-7.4-3.2s-4.2-1-6.5-1h-1.4v-4.7h1.4c2.7,0,5.3,0.4,7.7,1.2
		c2.4,0.8,5.2,1.9,8.4,3.5c2.8,1.4,5.3,2.4,7.6,3.1c2.3,0.7,4.6,1.1,6.9,1.1c1.6,0,2.8-0.3,3.7-0.8c0.9-0.6,1.3-1.3,1.3-2.3
		c0-0.6-0.2-1-0.5-1.3s-0.7-0.5-1.2-0.5c-0.7,0-1.2,0.2-1.4,0.5l-1.3-0.3l-1.1-3.2c0.8-0.6,1.5-1,2.3-1.2s1.6-0.3,2.6-0.3
		C1166.2,111.3,1167.6,111.9,1168.7,113z M1134.8,98.9c-0.3-0.4-0.7-0.5-1.4-0.5h-1.1v4.1c0,1,0.4,1.5,1.3,1.5c0.6,0,1-0.2,1.2-0.7
		c0.3-0.5,0.4-1.3,0.4-2.4C1135.1,99.9,1135,99.3,1134.8,98.9z"/>
	<path class="st1" d="M1221.4,75.7c1.9,1.8,2.8,4.5,2.8,8.3v23.7h-5.9V84c0-2.1-0.5-3.6-1.4-4.6s-2.5-1.4-4.5-1.4h-31.8v-4.9h31.8
		C1216.5,73.1,1219.5,74,1221.4,75.7z M1203.5,84.3c2,1.8,3,4.5,3,8.3v15.1h-5.9V92.1c0-2-0.5-3.4-1.6-4.3c-1.1-0.9-2.9-1.3-5.3-1.3
		c-2.5,0-4.3,0.4-5.4,1.3c-1.1,0.9-1.6,2.3-1.6,4.3v2.8c0.9-0.2,1.5-0.3,1.9-0.3c1.6,0,2.9,0.5,3.8,1.5s1.3,2.5,1.3,4.6
		c0,4.9-2.2,7.3-6.6,7.3c-2,0-3.6-0.5-4.7-1.6s-1.6-2.6-1.6-4.7v-9.1c0-3.8,1-6.6,3-8.3c2-1.8,5.3-2.7,9.8-2.7
		S1201.5,82.6,1203.5,84.3z M1189,98.9c-0.3-0.4-0.7-0.5-1.4-0.5h-1.1v4.1c0,1,0.4,1.5,1.3,1.5c0.6,0,1-0.2,1.2-0.7
		c0.3-0.5,0.4-1.3,0.4-2.4C1189.3,99.9,1189.2,99.3,1189,98.9z"/>
	<path class="st1" d="M1255.8,78.2c-0.1,0.1-0.2,0.4-0.2,0.8v1.7c1.3,0.3,2.3,0.9,3.1,1.7c0.8,0.8,1.2,1.8,1.2,2.9v11.9
		c0,3.8-1,6.5-3,8.3s-5.3,2.7-9.8,2.7s-7.8-0.9-9.8-2.7s-3-4.5-3-8.3V85.7c0-1.2-0.5-1.9-1.6-2.2l-1.3-1.9V77c0-2.6,1.3-3.9,3.9-3.9
		h6.6V78h-4.9c-0.4,0-0.7,0.1-0.9,0.2c-0.1,0.1-0.2,0.4-0.2,0.8v1.7c1.2,0.3,2.2,0.9,3.1,1.7s1.2,1.8,1.2,2.9v3.6h13.9v-3.3
		c0-1.2-0.5-1.9-1.6-2.2l-1.3-1.9V77c0-2.6,1.3-3.9,3.9-3.9h6.5V78h-4.9C1256.3,78,1256,78,1255.8,78.2z M1252.4,101.9
		c1.1-0.9,1.6-2.3,1.6-4.2v-4.6h-13.9v4.6c0,2,0.5,3.4,1.6,4.2c1.1,0.9,2.9,1.3,5.4,1.3S1251.3,102.7,1252.4,101.9z"/>
	<path class="st1" d="M1281.3,69.9v4.8c0,1.5-0.3,2.6-1,3.3s-1.8,1.1-3.2,1.1h-0.5c-0.1,0-0.5-0.2-1.3-0.5c-0.7-0.4-1.3-0.5-1.8-0.5
		c-0.4,0-0.7,0.1-0.9,0.2c-0.2,0.1-0.2,0.3-0.2,0.6v1.8c1.4,0.3,2.8,0.9,4.1,1.8c1.3,0.9,2,1.9,2,3.1v16.5c0,4.1-1.9,6.1-5.8,6.1
		c-4.1,0-6.1-2.4-6.1-7.3c0-2,0.4-3.5,1.3-4.5s2-1.6,3.5-1.6c0.3,0,0.7,0,1.2,0.1v-9c0-0.6-0.4-1.1-1.1-1.5s-1.5-0.6-2.2-0.8
		l-1.4-1.9v-5c0-2.3,1.2-3.4,3.5-3.4c1.2,0,2.3,0.3,3.3,0.8s1.5,0.8,1.7,0.8c0.1,0,0.2-0.1,0.2-0.2V70h4.7V69.9z M1272.6,103.6
		c0.2-0.2,0.2-0.6,0.2-1v-4.2h-0.7c-0.6,0-1.1,0.2-1.4,0.6c-0.3,0.4-0.4,1-0.4,1.8c0,1.1,0.1,1.9,0.3,2.4c0.2,0.5,0.6,0.8,1.1,0.8
		C1272.2,103.9,1272.4,103.8,1272.6,103.6z"/>
	<path class="st1" d="M1277.9,58.8c2.5,1.6,4.6,3.9,6.3,6.7l-1.2,2.8h-15c-1.9,0-3.4-0.5-4.5-1.4c-1-1-1.6-2.2-1.6-3.8
		c0-2,0.7-3.6,2.1-4.8c1.4-1.3,3.4-1.9,5.8-1.9C1272.8,56.3,1275.4,57.1,1277.9,58.8z M1278.7,64.5c-2.9-2.5-5.7-3.8-8.5-3.8
		c-1.1,0-1.9,0.2-2.4,0.6c-0.6,0.4-0.8,1-0.8,1.7c0,1,0.5,1.4,1.6,1.4h10.1V64.5z"/>
	<path class="st1" d="M1305.9,91.2c2.5,0.4,4.7,0.7,6.5,0.7l1.9,1.9v6.2c0,2.6-0.6,4.6-1.9,6s-3.2,2.1-5.7,2.1
		c-1.7,0-3.1-0.3-4.3-0.9c-1.2-0.6-2.4-1.4-3.7-2.5c-0.9-0.7-1.6-1.3-2.2-1.6s-1.2-0.6-2-0.6v5.4h-5.7V96h5.7v1.8
		c1.4,0.1,2.7,0.4,3.7,0.9s2.2,1.3,3.4,2.3c0.9,0.7,1.7,1.3,2.3,1.6c0.6,0.4,1.3,0.5,2,0.5c0.9,0,1.5-0.2,1.9-0.6
		c0.4-0.4,0.6-1.1,0.6-2v-4.4c-4.9-0.5-8.8-1.4-11.7-2.7c-2.6-1.1-4.6-2.6-6.1-4.3s-2.2-3.8-2.2-6.3c0-6.5,4.3-9.8,13-9.8
		c4.4,0,7.7,0.8,9.9,2.3c2.2,1.5,3.3,3.9,3.3,7.1c0,1.6-0.4,3-1.1,4.2c-0.8,1.1-1.7,2-2.9,2.6l-3.1-2.4v-1.2
		c0.5-0.4,0.8-0.9,0.9-1.4c0.2-0.5,0.2-1.1,0.2-1.7c0-1.6-0.6-2.7-1.8-3.5c-1.2-0.8-3.1-1.1-5.5-1.1s-4.1,0.4-5.3,1.3
		c-1.2,0.8-1.8,2.1-1.8,3.7c0,2.7,1.6,4.8,4.9,6.4C1301.2,90.1,1303.4,90.7,1305.9,91.2z"/>
	<path class="st1" d="M1307.6,58.7c2.7,1.6,5,3.9,6.8,6.8l-1.3,2.8h-18.2c-2,0-3.5-0.4-4.6-1.3c-1.1-0.9-1.6-2.1-1.6-3.7
		c0-2,0.9-3.7,2.6-5c1.8-1.3,4.2-2,7.2-2C1301.9,56.3,1304.9,57.1,1307.6,58.7z M1308.5,64.4c-1.5-1.2-3.1-2.1-4.7-2.7
		c-1.6-0.6-3.3-0.9-5.2-0.9c-1.5,0-2.6,0.3-3.4,0.8s-1.1,1.1-1.1,1.8c0,0.7,0.4,1.1,1.2,1.1h13.2V64.4z"/>
	<path class="st1" d="M1335,96.1c0.9,1,1.3,2.5,1.3,4.5c0,4.9-2,7.3-6.1,7.3c-1.9,0-3.4-0.5-4.4-1.6c-1-1-1.5-2.6-1.5-4.6V85.5
		c0-1.2-0.5-1.9-1.6-2.2l-1.3-1.9V77c0-2.6,1.3-3.9,3.9-3.9h6.6V78h-4.9c-0.4,0-0.7,0.1-0.9,0.2c-0.1,0.1-0.2,0.4-0.2,0.8v1.7
		c1.2,0.3,2.2,0.9,3.1,1.7s1.2,1.8,1.2,2.9v9.4c0.6-0.1,1-0.1,1.2-0.1C1333,94.6,1334.2,95.1,1335,96.1z M1332,103.2
		c0.2-0.5,0.3-1.3,0.3-2.4c0-0.9-0.1-1.5-0.4-1.8c-0.3-0.4-0.7-0.6-1.4-0.6h-0.7v4.2c0,0.5,0.1,0.8,0.3,1c0.2,0.2,0.5,0.3,0.9,0.3
		C1331.5,103.9,1331.8,103.7,1332,103.2z"/>
	<path class="st1" d="M1401.8,75.7c1.9,1.8,2.8,4.5,2.8,8.3v23.7h-5.9V84c0-2.1-0.5-3.6-1.4-4.6s-2.5-1.4-4.6-1.4h-9
		c-0.4,0-0.7,0.1-0.9,0.2c-0.1,0.1-0.2,0.4-0.2,0.8v1.7c1.2,0.3,2.2,0.9,3,1.6c0.8,0.8,1.2,1.7,1.3,2.7v12.1c0,3.8-1,6.5-2.9,8.3
		s-5,2.7-9.1,2.7c-4.5,0-7.7-1.2-9.7-3.6c-1,1.2-2.4,2.1-3.9,2.7s-3.6,0.9-5.9,0.9c-4.2,0-7.3-0.9-9.3-2.7c-1.9-1.8-2.9-4.6-2.9-8.3
		V78.8c0-1.9,0.5-3.3,1.6-4.3s2.7-1.5,4.7-1.5c2.1,0,3.7,0.6,4.8,1.7c1.1,1.1,1.6,2.7,1.6,4.9c0,2.1-0.5,3.8-1.5,4.9
		c-1,1.2-2.4,1.8-4,1.8c-0.4,0-0.9-0.1-1.3-0.2v11.6c0,2,0.5,3.4,1.6,4.3c1,0.9,2.7,1.3,5,1.3c2.2,0,3.9-0.5,4.9-1.4
		s1.6-2.3,1.6-4.2v-12c0-1.2-0.5-1.9-1.6-2.2l-1.3-1.9V77c0-2.6,1.3-3.9,3.9-3.9h6.6V78h-4.9c-0.4,0-0.7,0.1-0.9,0.2
		c-0.1,0.1-0.2,0.4-0.2,0.8v1.7c1.2,0.3,2.2,0.9,3,1.6c0.8,0.8,1.2,1.7,1.3,2.7v12.6c0,1.9,0.5,3.3,1.6,4.2s2.7,1.4,4.8,1.4
		c2.3,0,3.9-0.4,4.9-1.3c1-0.9,1.5-2.3,1.5-4.3v-12c0-1.2-0.5-1.9-1.6-2.2l-1.3-1.9V77c0-2.6,1.3-3.9,3.9-3.9h10.7
		C1396.8,73.1,1399.9,74,1401.8,75.7z M1349.1,77.4c-0.3,0.3-0.4,0.7-0.4,1.2v4h1c1.4,0,2-1,2-3c0-1.7-0.5-2.6-1.6-2.6
		C1349.7,76.9,1349.4,77.1,1349.1,77.4z"/>
	<path class="st1" d="M1440.6,73.1V78h-26.3v-4.9H1440.6z M1437.3,84.3c2,1.8,3,4.5,3,8.3v15.1h-5.9V92.1c0-2-0.5-3.4-1.6-4.3
		c-1.1-0.9-2.9-1.3-5.3-1.3c-2.5,0-4.3,0.4-5.4,1.3c-1.1,0.9-1.6,2.3-1.6,4.3v5.3c2-2,4.4-3,7-3h0.9l0.9,0.9l-0.7,3.3h-1.4
		c-2.5,0-4.8,1.3-6.7,3.9v5.2h-5.9V92.6c0-3.8,1-6.6,3-8.3c2-1.8,5.3-2.7,9.8-2.7S1435.3,82.6,1437.3,84.3z"/>
	<path class="st1" d="M1449.4,107.1c-0.6-0.6-0.9-1.5-0.9-2.6s0.3-1.9,0.9-2.5s1.4-0.9,2.5-0.9s1.9,0.3,2.5,0.9
		c0.6,0.6,0.9,1.4,0.9,2.5s-0.3,2-0.9,2.6s-1.4,0.9-2.5,0.9C1450.9,108.1,1450,107.7,1449.4,107.1z M1455.2,67.2l-0.8,29.8h-4.8
		l-0.8-29.8H1455.2z"/>
</g>
</svg>
