<svg xmlns="http://www.w3.org/2000/svg" viewBox="0 0 149.1 73.44"><defs><style>.cls-1{fill:#d1415d;}.cls-2{fill:#fff;}</style></defs><title>slogan</title><g id="Layer_2" data-name="Layer 2"><g id="Layer_1-2" data-name="Layer 1"><rect class="cls-1" width="149.1" height="73.44" rx="36.72"/><path class="cls-2" d="M27.55,28.91v3.64a3,3,0,0,1-.78,2.25,3.14,3.14,0,0,1-2.2.73h-.35a3.83,3.83,0,0,1-.78-.35,2.8,2.8,0,0,0-1.26-.35,1.06,1.06,0,0,0-.57.11.41.41,0,0,0-.16.38v1a8.53,8.53,0,0,1,3.05,1.16,2.51,2.51,0,0,1,1.42,2.06v10a4.22,4.22,0,0,1-1.16,3.21,4.71,4.71,0,0,1-3.35,1.09A4.47,4.47,0,0,1,18,52.65,5.1,5.1,0,0,1,16.88,49,4.77,4.77,0,0,1,17.73,46a2.8,2.8,0,0,1,2.33-1.06,6.62,6.62,0,0,1,1,.07V40c0-.62-.74-1.12-2.22-1.49l-1-1.1V33.34A2.09,2.09,0,0,1,20.27,31a5.17,5.17,0,0,1,2.51.53q1,.54,1,.54c.07,0,.1,0,.1-.1V28.91ZM21.38,50.14V47.58H21a1.06,1.06,0,0,0-.92.36,2.16,2.16,0,0,0-.26,1.2A3.81,3.81,0,0,0,20,50.51a.65.65,0,0,0,.64.43C21.14,50.94,21.38,50.67,21.38,50.14Z"/><path class="cls-2" d="M25.36,21.13a14,14,0,0,1,4.37,4.45l-.87,2.29H18.5a4,4,0,0,1-3-1.06,3.53,3.53,0,0,1-1-2.61,4.18,4.18,0,0,1,1.49-3.31,6.12,6.12,0,0,1,4.15-1.3A10,10,0,0,1,25.36,21.13Zm.28,4A10.48,10.48,0,0,0,23,23.49a7,7,0,0,0-2.67-.5,2.83,2.83,0,0,0-1.52.33,1,1,0,0,0-.52.95.77.77,0,0,0,.24.62,1,1,0,0,0,.66.21Z"/><path class="cls-2" d="M44.48,42.89a25.72,25.72,0,0,0,4.13.39l1.48,1.49v3.5a5.63,5.63,0,0,1-1.4,4.11,5.32,5.32,0,0,1-4,1.44,6.86,6.86,0,0,1-2.87-.51,13.46,13.46,0,0,1-2.36-1.4,12.64,12.64,0,0,0-1.23-.81,3.92,3.92,0,0,0-1.13-.44v3H32.46V46H37.1v1.11a6.64,6.64,0,0,1,2.26.54,9.34,9.34,0,0,1,1.87,1.16c.62.41,1.1.71,1.43.88a2.57,2.57,0,0,0,1.16.26,1.48,1.48,0,0,0,1.1-.35,1.6,1.6,0,0,0,.33-1.1V46.23a23.38,23.38,0,0,1-7.35-1.77q-5.71-2.57-5.71-7.1a5.75,5.75,0,0,1,2.25-5c1.5-1.1,3.76-1.64,6.79-1.64s5.36.52,6.87,1.55a5.39,5.39,0,0,1,2.27,4.75,5.45,5.45,0,0,1-2.84,4.78l-2.77-1.77v-.9a2.24,2.24,0,0,0,.61-.83,3.09,3.09,0,0,0,.15-1,2.17,2.17,0,0,0-1.05-2,6.41,6.41,0,0,0-3.24-.64,5.51,5.51,0,0,0-3.14.74A2.5,2.5,0,0,0,37,37.57q0,2.57,3.25,4.09A17.48,17.48,0,0,0,44.48,42.89Z"/><path class="cls-2" d="M45.18,21.12a15.17,15.17,0,0,1,5,4.46l-1,2.29H37a5.42,5.42,0,0,1-3.44-.95,3.2,3.2,0,0,1-1.2-2.65,4,4,0,0,1,1.78-3.36,8.17,8.17,0,0,1,4.94-1.32A12.69,12.69,0,0,1,45.18,21.12Zm.52,3.94a16,16,0,0,0-3.26-1.55A10.37,10.37,0,0,0,39.15,23a3.66,3.66,0,0,0-1.82.37,1.11,1.11,0,0,0-.64,1c0,.46.31.69.94.69Z"/><path class="cls-2" d="M64.37,46A4.75,4.75,0,0,1,65.23,49q0,4.81-4.54,4.82a4.7,4.7,0,0,1-3.34-1.09,4.22,4.22,0,0,1-1.16-3.21V39.86a1.29,1.29,0,0,0-.93-1.36l-1-1.1V33.52A2.23,2.23,0,0,1,56.82,31h5.09v3.84h-3.4A.89.89,0,0,0,58,35a.59.59,0,0,0-.14.44v1a5.28,5.28,0,0,1,2.29,1.11A2.39,2.39,0,0,1,61,39.34V45a5.86,5.86,0,0,1,1-.07A2.93,2.93,0,0,1,64.37,46Zm-2.29,4.56a3.34,3.34,0,0,0,.21-1.37,2.16,2.16,0,0,0-.26-1.2,1.07,1.07,0,0,0-.92-.36h-.38v2.56c0,.53.23.8.69.8A.69.69,0,0,0,62.08,50.51Z"/><path class="cls-2" d="M108.62,32.86c1.37,1.25,2.06,3.16,2.06,5.75v15h-4.85v-15a4,4,0,0,0-.87-2.84,3.39,3.39,0,0,0-2.63-.94H96.55A.91.91,0,0,0,96,35a.59.59,0,0,0-.14.44v1a5.1,5.1,0,0,1,2.27,1.11A2.41,2.41,0,0,1,99,39.34V46.4q0,3.89-2,5.67c-1.3,1.18-3.35,1.78-6.15,1.78-3,0-5.15-.89-6.58-2.67a6.45,6.45,0,0,1-2.72,2,11,11,0,0,1-4.1.66c-2.89,0-5-.6-6.34-1.78s-2-3.08-2-5.67V35a3.9,3.9,0,0,1,1.2-3.12,5,5,0,0,1,3.41-1A4.7,4.7,0,0,1,77.27,32a4.66,4.66,0,0,1,1.13,3.4,4.87,4.87,0,0,1-1,3.22,3.1,3.1,0,0,1-2.51,1.14,4.2,4.2,0,0,1-.9-.1v7.1A3,3,0,0,0,75,49.24,4.73,4.73,0,0,0,78,50a4.53,4.53,0,0,0,2.93-.84,3,3,0,0,0,1-2.41V39.86a1.31,1.31,0,0,0-1-1.36L80,37.4V33.52A2.24,2.24,0,0,1,82.55,31h5.09v3.84H84.25a.93.93,0,0,0-.56.12.59.59,0,0,0-.13.44v1a5.19,5.19,0,0,1,2.28,1.11,2.37,2.37,0,0,1,.94,1.87v7.41a3,3,0,0,0,1,2.41,4,4,0,0,0,2.73.84,4.28,4.28,0,0,0,2.83-.76,3.13,3.13,0,0,0,.88-2.49V39.86A1.49,1.49,0,0,0,94,39a1.24,1.24,0,0,0-.71-.47l-1-1.1V33.52A2.24,2.24,0,0,1,94.81,31h7.52C105.15,31,107.24,31.61,108.62,32.86Zm-35,1.8v2.42h.59c.81,0,1.21-.58,1.21-1.76s-.32-1.56-1-1.56S73.65,34.06,73.65,34.66Z"/><path class="cls-2" d="M134.68,31v3.84H116.5V31Zm-2.27,7.51q2.1,1.77,2.1,5.69v9.42h-4.85V43.84a3,3,0,0,0-.95-2.49,5.06,5.06,0,0,0-3.14-.77,5,5,0,0,0-3.1.77,3,3,0,0,0-1,2.49V46.3a6.19,6.19,0,0,1,2-1.23,5.74,5.74,0,0,1,2.06-.4h.62l.66.62-.45,2.46h-.9a5.24,5.24,0,0,0-4,2v3.81h-4.85V44.19q0-3.91,2.08-5.69c1.38-1.17,3.66-1.76,6.82-1.76S131,37.33,132.41,38.5Z"/></g></g></svg>