<?xml version="1.0" encoding="utf-8"?>
<!-- Generator: Adobe Illustrator 24.0.2, SVG Export Plug-In . SVG Version: 6.00 Build 0)  -->
<svg version="1.1" id="Layer_1" xmlns="http://www.w3.org/2000/svg" xmlns:xlink="http://www.w3.org/1999/xlink" x="0px" y="0px"
	 viewBox="0 0 1500 290.6" style="enable-background:new 0 0 1500 290.6;" xml:space="preserve">
<style type="text/css">
	.st0{fill:url(#SVGID_1_);}
	.st1{fill:#FFFFFF;}
</style>
<title>2_3_footer</title>
<g id="Layer_2_1_">
	<g id="Layer_1-2">
		<linearGradient id="SVGID_1_" gradientUnits="userSpaceOnUse" x1="750" y1="290.6" x2="750" y2="-9.094947e-13">
			<stop  offset="0" style="stop-color:#910C1F"/>
			<stop  offset="0.4575" style="stop-color:#8E0D1F"/>
			<stop  offset="0.8244" style="stop-color:#84111F"/>
			<stop  offset="1" style="stop-color:#7C141F"/>
		</linearGradient>
		<rect class="st0" width="1500" height="290.6"/>
		<g>
			<g>
			</g>
		</g>
		<path class="st1" d="M82.1,217.3l-6.7-6.8c-0.6-0.6-1.5-0.7-2.2-0.3l-5.4,2.9c-4.6-5-7.2-11.4-7.6-18.1l5.9-1.8
			c0.8-0.2,1.3-1,1.3-1.8l-0.2-9.5c0-0.9-0.7-1.7-1.6-1.8l-8.3-1.4c-0.9-0.1-1.7,0.4-2,1.1c-7.6,18.6,1.3,39.8,19.8,47.4l0,0
			c0.8,0.3,1.7,0.1,2.3-0.7l4.8-6.8C82.9,219,82.8,218,82.1,217.3L82.1,217.3z"/>
	</g>
</g>
<g>
	<path class="st1" d="M796.8,195.1c-1.2,0.9-1.8,2.2-1.8,3.9c0,2.4,1.2,4.3,3.5,5.5s5,2,8.1,2.4c0.1-0.9,0.6-1.7,1.3-2.2
		c0.7-0.6,1.6-0.8,2.7-0.8c1.3,0,2.3,0.3,3,0.9c0.7,0.6,1.1,1.5,1.1,2.6c0,0.9-0.2,1.6-0.7,2.2c-0.4,0.6-1,1-1.7,1.2v3.9
		c0,2.9-0.9,5.2-2.7,6.8c-1.8,1.6-4.4,2.4-7.6,2.4c-3.4,0-6-0.8-7.8-2.4c-1.8-1.6-2.7-3.9-2.7-6.8v-2.8h5.7v3.4
		c0,2.5,1.6,3.8,4.9,3.8c1.4,0,2.5-0.3,3.3-1c0.8-0.7,1.2-1.6,1.2-2.9v-4.1c-2.8-0.1-5.5-0.7-8.1-1.6c-2.7-0.9-4.9-2.3-6.6-4.1
		c-1.8-1.8-2.6-4-2.6-6.5c0-3.3,1.1-5.7,3.4-7.5s5.5-2.6,9.8-2.6c4.1,0,7.3,0.8,9.5,2.5c2.2,1.7,3.3,4,3.3,7.1v0.5l-4.7,0.6
		l-1.2-1.1c0-1.5-0.6-2.6-1.8-3.4c-1.2-0.8-2.9-1.2-5.2-1.2C799.9,193.8,798.1,194.2,796.8,195.1z"/>
	<path class="st1" d="M808.3,174.7c2.7,1.6,5,3.9,6.8,6.8l-1.3,2.8h-18.2c-2,0-3.5-0.4-4.6-1.3c-1.1-0.9-1.6-2.1-1.6-3.7
		c0-2,0.9-3.7,2.6-5c1.8-1.3,4.2-2,7.2-2C802.5,172.3,805.6,173.1,808.3,174.7z M809.2,180.4c-1.5-1.2-3.1-2.1-4.7-2.7
		c-1.6-0.6-3.3-0.9-5.2-0.9c-1.5,0-2.6,0.3-3.4,0.8c-0.8,0.5-1.1,1.1-1.1,1.8c0,0.7,0.4,1.1,1.2,1.1H809.2z"/>
	<path class="st1" d="M866.2,191.5c1.8,1.6,2.6,4.1,2.6,7.5v24.7h-5.9v-25.3c0-3-1.6-4.5-4.8-4.5h-3.5l-4.6,2.5c0,0.2,0.1,0.5,0.1,1
		v26.3h-5.9V198c0-0.4,0-0.8-0.1-1.1c-0.1-0.3-0.3-0.6-0.6-0.9l-1.4-1.4l-3.5,3.4h-1.8l-3.5-3.4l-1.4,1.4c-0.5,0.5-0.8,1.2-0.8,2
		v12.9c0.9-0.2,1.5-0.3,1.9-0.3c1.6,0,2.9,0.5,3.8,1.5s1.3,2.5,1.3,4.6c0,4.9-2.2,7.3-6.6,7.3c-2,0-3.6-0.5-4.7-1.6
		c-1.1-1.1-1.6-2.6-1.6-4.7v-20.3c0-0.8,0.1-1.5,0.4-2.2c0.3-0.6,0.7-1.2,1.2-1.7l4.7-4.5h2l4.1,4l4.1-4h2l4,3.7l6.6-3.7h3.9
		C861.8,189.1,864.4,189.9,866.2,191.5z M867.2,229c1.1,1.1,1.6,2.6,1.6,4.5c0,2.5-0.9,4.5-2.7,5.9c-1.8,1.4-4.2,2.1-7.3,2.1
		c-2.9,0-5.7-0.4-8.4-1.2c-2.7-0.8-5.6-2-8.6-3.5c-2.9-1.4-5.4-2.5-7.4-3.2c-2-0.7-4.2-1-6.5-1h-1.4v-4.7h1.4c2.7,0,5.3,0.4,7.7,1.2
		c2.4,0.8,5.2,1.9,8.4,3.5c2.8,1.4,5.3,2.4,7.6,3.1c2.3,0.7,4.6,1.1,6.9,1.1c1.6,0,2.8-0.3,3.7-0.8c0.9-0.6,1.3-1.3,1.3-2.3
		c0-0.6-0.2-1-0.5-1.3c-0.3-0.3-0.7-0.5-1.2-0.5c-0.7,0-1.2,0.2-1.4,0.5l-1.3-0.3l-1.1-3.2c0.8-0.6,1.5-1,2.3-1.2
		c0.8-0.2,1.6-0.3,2.6-0.3C864.7,227.3,866.1,227.9,867.2,229z M833.3,214.9c-0.3-0.4-0.7-0.5-1.4-0.5h-1.1v4.1c0,1,0.4,1.5,1.3,1.5
		c0.6,0,1-0.2,1.2-0.7c0.3-0.5,0.4-1.3,0.4-2.4C833.6,215.9,833.5,215.3,833.3,214.9z"/>
	<path class="st1" d="M881.2,194.2c-0.1,0.1-0.2,0.4-0.2,0.8v1.7c1.2,0.3,2.2,0.9,3.1,1.7s1.2,1.8,1.2,2.9v16.5l6-5.5h1.9l6,5.5
		v-6.2c-0.5,0.1-0.9,0.2-1.4,0.2c-1.7,0-3.1-0.6-4.1-1.8c-1-1.2-1.6-2.8-1.6-4.9c0-2.1,0.6-3.7,1.7-4.8c1.1-1.1,2.8-1.7,4.8-1.7
		c2.1,0,3.7,0.5,4.8,1.5s1.7,2.4,1.7,4.3v19.3h-5.9l-7-6.5l-7,6.5h-5.9v-22.1c0-1.2-0.5-1.9-1.6-2.2l-1.3-1.9V193
		c0-2.6,1.3-3.9,3.9-3.9h5.5c1.3,0,2.5,0.1,3.7,0.4s2.4,0.7,3.8,1.2c1.1,0.4,1.9,0.7,2.6,0.9c0.6,0.2,1.3,0.3,1.9,0.3
		c0.8,0,1.3-0.2,1.6-0.6c0.3-0.4,0.5-1,0.5-1.8v-3.6h5.3v3.4c0,2.4-0.6,4.2-1.7,5.3s-3,1.7-5.5,1.7c-1,0-1.9-0.1-2.7-0.3
		c-0.8-0.2-1.9-0.4-3.1-0.8c-1.4-0.4-2.5-0.7-3.5-0.9s-2-0.3-3.2-0.3H882C881.6,194,881.3,194,881.2,194.2z M898.5,208.1h1v-3.9
		c0-0.5-0.1-0.9-0.4-1.2c-0.3-0.3-0.6-0.4-1-0.4c-1,0-1.6,0.8-1.6,2.5C896.5,207.1,897.2,208.1,898.5,208.1z"/>
	<path class="st1" d="M904.5,228.1v13.7h-4.9v-5.5c-1.2,1.6-2.6,3-4.4,4.1c-1.8,1.1-3.7,1.6-5.8,1.6c-2.7,0-4.9-0.7-6.6-2.1
		c-1.7-1.4-2.7-3.3-3-5.6l1-1.6c1.5-0.5,3.1-1.3,4.7-2.4c1.6-1.1,2.8-2.3,3.7-3.6h0.6l3.1,2.3c-0.8,1.6-1.8,2.9-3.2,4.1
		c-1.4,1.2-2.9,1.9-4.3,2.2c0.6,1.3,2.1,2,4.3,2c2.2,0,4.1-0.7,5.8-2.1c1.7-1.4,3.1-3,4.1-4.9v-2.1H904.5z"/>
	<path class="st1" d="M915.8,200.4c-1.2-1.2-1.8-2.8-1.8-4.8c0-2,0.6-3.6,1.8-4.8c1.2-1.2,2.8-1.8,4.8-1.8c2,0,3.6,0.6,4.8,1.8
		c1.2,1.2,1.8,2.8,1.8,4.8c0,2-0.6,3.6-1.8,4.8s-2.8,1.8-4.8,1.8C918.6,202.2,917,201.6,915.8,200.4z M915.8,221.7
		c-1.2-1.2-1.8-2.8-1.8-4.8c0-2,0.6-3.6,1.8-4.8c1.2-1.2,2.8-1.8,4.8-1.8c2,0,3.6,0.6,4.8,1.8c1.2,1.2,1.8,2.8,1.8,4.8
		c0,2-0.6,3.6-1.8,4.8s-2.8,1.8-4.8,1.8C918.6,223.5,917,222.9,915.8,221.7z M922.3,197.5c0.4-0.5,0.7-1.1,0.7-1.9
		c0-0.8-0.2-1.5-0.6-1.9c-0.4-0.5-1-0.7-1.8-0.7c-0.7,0-1.3,0.2-1.7,0.7c-0.4,0.5-0.6,1.1-0.6,1.9c0,0.8,0.2,1.4,0.6,1.9
		c0.4,0.5,1,0.7,1.7,0.7C921.3,198.2,921.9,197.9,922.3,197.5z M922.3,218.7c0.4-0.5,0.7-1.1,0.7-1.9c0-0.8-0.2-1.4-0.7-1.9
		c-0.4-0.5-1-0.7-1.7-0.7c-0.7,0-1.3,0.2-1.7,0.7c-0.4,0.5-0.6,1.1-0.6,1.9c0,0.8,0.2,1.4,0.6,1.9c0.4,0.5,1,0.7,1.7,0.7
		C921.3,219.4,921.9,219.2,922.3,218.7z"/>
	<path class="st1" d="M958.1,195.1c-1.2,0.9-1.8,2.2-1.8,3.9c0,2.4,1.2,4.3,3.5,5.5s5,2,8.1,2.4c0.1-0.9,0.6-1.7,1.3-2.2
		c0.7-0.6,1.6-0.8,2.7-0.8c1.3,0,2.3,0.3,3,0.9c0.7,0.6,1.1,1.5,1.1,2.6c0,0.9-0.2,1.6-0.7,2.2c-0.4,0.6-1,1-1.7,1.2v3.9
		c0,2.9-0.9,5.2-2.7,6.8c-1.8,1.6-4.4,2.4-7.6,2.4c-3.4,0-6-0.8-7.8-2.4c-1.8-1.6-2.7-3.9-2.7-6.8v-2.8h5.7v3.4
		c0,2.5,1.6,3.8,4.9,3.8c1.4,0,2.5-0.3,3.3-1c0.8-0.7,1.2-1.6,1.2-2.9v-4.1c-2.8-0.1-5.5-0.7-8.1-1.6c-2.7-0.9-4.9-2.3-6.6-4.1
		c-1.8-1.8-2.6-4-2.6-6.5c0-3.3,1.1-5.7,3.4-7.5s5.5-2.6,9.8-2.6c4.1,0,7.3,0.8,9.5,2.5c2.2,1.7,3.3,4,3.3,7.1v0.5l-4.7,0.6
		l-1.2-1.1c0-1.5-0.6-2.6-1.8-3.4c-1.2-0.8-2.9-1.2-5.2-1.2C961.1,193.8,959.3,194.2,958.1,195.1z"/>
	<path class="st1" d="M969.6,174.7c2.7,1.6,5,3.9,6.8,6.8l-1.3,2.8h-18.2c-2,0-3.5-0.4-4.6-1.3c-1.1-0.9-1.6-2.1-1.6-3.7
		c0-2,0.9-3.7,2.6-5c1.8-1.3,4.2-2,7.2-2C963.8,172.3,966.8,173.1,969.6,174.7z M970.4,180.4c-1.5-1.2-3.1-2.1-4.7-2.7
		c-1.6-0.6-3.3-0.9-5.2-0.9c-1.5,0-2.6,0.3-3.4,0.8c-0.8,0.5-1.1,1.1-1.1,1.8c0,0.7,0.4,1.1,1.2,1.1H970.4z"/>
	<path class="st1" d="M1027.4,191.5c1.8,1.6,2.6,4.1,2.6,7.5v24.7h-5.9v-25.3c0-3-1.6-4.5-4.8-4.5h-3.5l-4.6,2.5
		c0,0.2,0.1,0.5,0.1,1v26.3h-5.9V198c0-0.4,0-0.8-0.1-1.1c-0.1-0.3-0.3-0.6-0.6-0.9l-1.4-1.4l-3.5,3.4H998l-3.5-3.4L993,196
		c-0.5,0.5-0.8,1.2-0.8,2v12.9c0.9-0.2,1.5-0.3,1.9-0.3c1.6,0,2.9,0.5,3.8,1.5s1.3,2.5,1.3,4.6c0,4.9-2.2,7.3-6.6,7.3
		c-2,0-3.6-0.5-4.7-1.6c-1.1-1.1-1.6-2.6-1.6-4.7v-20.3c0-0.8,0.1-1.5,0.4-2.2c0.3-0.6,0.7-1.2,1.2-1.7l4.7-4.5h2l4.1,4l4.1-4h2
		l4,3.7l6.6-3.7h3.9C1023,189.1,1025.7,189.9,1027.4,191.5z M1028.4,229c1.1,1.1,1.6,2.6,1.6,4.5c0,2.5-0.9,4.5-2.7,5.9
		c-1.8,1.4-4.2,2.1-7.3,2.1c-2.9,0-5.7-0.4-8.4-1.2c-2.7-0.8-5.6-2-8.6-3.5c-2.9-1.4-5.4-2.5-7.4-3.2c-2-0.7-4.2-1-6.5-1h-1.4v-4.7
		h1.4c2.7,0,5.3,0.4,7.7,1.2c2.4,0.8,5.2,1.9,8.4,3.5c2.8,1.4,5.3,2.4,7.6,3.1c2.3,0.7,4.6,1.1,6.9,1.1c1.6,0,2.8-0.3,3.7-0.8
		c0.9-0.6,1.3-1.3,1.3-2.3c0-0.6-0.2-1-0.5-1.3c-0.3-0.3-0.7-0.5-1.2-0.5c-0.7,0-1.2,0.2-1.4,0.5l-1.3-0.3l-1.1-3.2
		c0.8-0.6,1.5-1,2.3-1.2c0.8-0.2,1.6-0.3,2.6-0.3C1025.9,227.3,1027.4,227.9,1028.4,229z M994.5,214.9c-0.3-0.4-0.7-0.5-1.4-0.5H992
		v4.1c0,1,0.4,1.5,1.3,1.5c0.6,0,1-0.2,1.2-0.7c0.3-0.5,0.4-1.3,0.4-2.4C994.9,215.9,994.8,215.3,994.5,214.9z"/>
	<path class="st1" d="M1043.5,199.9c-2-1.3-3.1-3.2-3.1-5.6c0-1.8,0.5-3.1,1.4-4.1c0.9-1,2.3-1.4,4.1-1.4c1,0,1.9,0.1,2.7,0.3
		c0.8,0.2,1.6,0.6,2.4,1.2l-1,3l-1.2,0.2c-0.4-0.3-0.8-0.5-1.2-0.5c-0.4,0-0.8,0.1-1,0.3c-0.2,0.2-0.3,0.5-0.3,0.9
		c0,0.9,0.5,1.6,1.6,2.1c1.1,0.5,2.5,0.8,4.3,0.8c2.8,0,4.9-0.8,6.4-2.3c1.5-1.6,2.3-3.6,2.3-6v-2.8h5.6v2.8c0,2.6-0.6,4.9-1.8,6.9
		c-1.2,1.9-2.9,3.4-5.1,4.5c-2.2,1-4.7,1.6-7.6,1.6C1048.3,201.9,1045.5,201.2,1043.5,199.9z M1040.6,204.3h5.9v13.4l6-5.5h1.9
		l6,5.5v-13.4h5.9v19.4h-5.9l-7-6.5l-7,6.5h-5.9V204.3z"/>
	<path class="st1" d="M1066.3,171.6v10.1l-1.3,2.6h-18.2c-2,0-3.5-0.4-4.6-1.3c-1.1-0.9-1.6-2.1-1.6-3.7c0-2,0.9-3.7,2.6-5
		c1.8-1.3,4.2-2,7.2-2c4.3,0,8.2,1.5,11.6,4.6v-5.4H1066.3z M1060.4,180.4c-1.5-1.2-3.1-2.1-4.7-2.7c-1.6-0.6-3.3-0.9-5.2-0.9
		c-1.5,0-2.6,0.3-3.4,0.8c-0.8,0.5-1.1,1.1-1.1,1.8c0,0.7,0.4,1.1,1.2,1.1H1060.4z"/>
	<path class="st1" d="M1098.3,195.1c-1.2,0.9-1.8,2.2-1.8,3.9c0,2.4,1.2,4.3,3.5,5.5s5,2,8.1,2.4c0.1-0.9,0.6-1.7,1.3-2.2
		c0.7-0.6,1.6-0.8,2.7-0.8c1.3,0,2.3,0.3,3,0.9c0.7,0.6,1.1,1.5,1.1,2.6c0,0.9-0.2,1.6-0.7,2.2c-0.4,0.6-1,1-1.7,1.2v3.9
		c0,2.9-0.9,5.2-2.7,6.8c-1.8,1.6-4.4,2.4-7.6,2.4c-3.4,0-6-0.8-7.8-2.4c-1.8-1.6-2.7-3.9-2.7-6.8v-2.8h5.7v3.4
		c0,2.5,1.6,3.8,4.9,3.8c1.4,0,2.5-0.3,3.3-1c0.8-0.7,1.2-1.6,1.2-2.9v-4.1c-2.8-0.1-5.5-0.7-8.1-1.6c-2.7-0.9-4.9-2.3-6.6-4.1
		c-1.8-1.8-2.6-4-2.6-6.5c0-3.3,1.1-5.7,3.4-7.5s5.5-2.6,9.8-2.6c4.1,0,7.3,0.8,9.5,2.5c2.2,1.7,3.3,4,3.3,7.1v0.5l-4.7,0.6
		l-1.2-1.1c0-1.5-0.6-2.6-1.8-3.4c-1.2-0.8-2.9-1.2-5.2-1.2C1101.4,193.8,1099.5,194.2,1098.3,195.1z"/>
	<path class="st1" d="M1109.8,174.7c2.7,1.6,5,3.9,6.8,6.8l-1.3,2.8H1097c-2,0-3.5-0.4-4.6-1.3c-1.1-0.9-1.6-2.1-1.6-3.7
		c0-2,0.9-3.7,2.6-5c1.8-1.3,4.2-2,7.2-2C1104,172.3,1107.1,173.1,1109.8,174.7z M1110.7,180.4c-1.5-1.2-3.1-2.1-4.7-2.7
		c-1.6-0.6-3.3-0.9-5.2-0.9c-1.5,0-2.6,0.3-3.4,0.8c-0.8,0.5-1.1,1.1-1.1,1.8c0,0.7,0.4,1.1,1.2,1.1H1110.7z"/>
	<path class="st1" d="M1167.7,191.5c1.8,1.6,2.6,4.1,2.6,7.5v24.7h-5.9v-25.3c0-3-1.6-4.5-4.8-4.5h-3.5l-4.6,2.5
		c0,0.2,0.1,0.5,0.1,1v26.3h-5.9V198c0-0.4,0-0.8-0.1-1.1c-0.1-0.3-0.3-0.6-0.6-0.9l-1.4-1.4l-3.5,3.4h-1.8l-3.5-3.4l-1.4,1.4
		c-0.5,0.5-0.8,1.2-0.8,2v12.9c0.9-0.2,1.5-0.3,1.9-0.3c1.6,0,2.9,0.5,3.8,1.5s1.3,2.5,1.3,4.6c0,4.9-2.2,7.3-6.6,7.3
		c-2,0-3.6-0.5-4.7-1.6c-1.1-1.1-1.6-2.6-1.6-4.7v-20.3c0-0.8,0.1-1.5,0.4-2.2c0.3-0.6,0.7-1.2,1.2-1.7l4.7-4.5h2l4.1,4l4.1-4h2
		l4,3.7l6.6-3.7h3.9C1163.3,189.1,1165.9,189.9,1167.7,191.5z M1168.7,229c1.1,1.1,1.6,2.6,1.6,4.5c0,2.5-0.9,4.5-2.7,5.9
		c-1.8,1.4-4.2,2.1-7.3,2.1c-2.9,0-5.7-0.4-8.4-1.2c-2.7-0.8-5.6-2-8.6-3.5c-2.9-1.4-5.4-2.5-7.4-3.2c-2-0.7-4.2-1-6.5-1h-1.4v-4.7
		h1.4c2.7,0,5.3,0.4,7.7,1.2c2.4,0.8,5.2,1.9,8.4,3.5c2.8,1.4,5.3,2.4,7.6,3.1c2.3,0.7,4.6,1.1,6.9,1.1c1.6,0,2.8-0.3,3.7-0.8
		c0.9-0.6,1.3-1.3,1.3-2.3c0-0.6-0.2-1-0.5-1.3c-0.3-0.3-0.7-0.5-1.2-0.5c-0.7,0-1.2,0.2-1.4,0.5l-1.3-0.3l-1.1-3.2
		c0.8-0.6,1.5-1,2.3-1.2c0.8-0.2,1.6-0.3,2.6-0.3C1166.2,227.3,1167.6,227.9,1168.7,229z M1134.8,214.9c-0.3-0.4-0.7-0.5-1.4-0.5
		h-1.1v4.1c0,1,0.4,1.5,1.3,1.5c0.6,0,1-0.2,1.2-0.7c0.3-0.5,0.4-1.3,0.4-2.4C1135.1,215.9,1135,215.3,1134.8,214.9z"/>
	<path class="st1" d="M1221.4,191.7c1.9,1.8,2.8,4.5,2.8,8.3v23.7h-5.9V200c0-2.1-0.5-3.6-1.4-4.6c-0.9-1-2.5-1.4-4.5-1.4h-31.8
		v-4.9h31.8C1216.5,189.1,1219.5,190,1221.4,191.7z M1203.5,200.3c2,1.8,3,4.5,3,8.3v15.1h-5.9v-15.6c0-2-0.5-3.4-1.6-4.3
		c-1.1-0.9-2.9-1.3-5.3-1.3c-2.5,0-4.3,0.4-5.4,1.3c-1.1,0.9-1.6,2.3-1.6,4.3v2.8c0.9-0.2,1.5-0.3,1.9-0.3c1.6,0,2.9,0.5,3.8,1.5
		s1.3,2.5,1.3,4.6c0,4.9-2.2,7.3-6.6,7.3c-2,0-3.6-0.5-4.7-1.6c-1.1-1.1-1.6-2.6-1.6-4.7v-9.1c0-3.8,1-6.6,3-8.3
		c2-1.8,5.3-2.7,9.8-2.7S1201.5,198.6,1203.5,200.3z M1189,214.9c-0.3-0.4-0.7-0.5-1.4-0.5h-1.1v4.1c0,1,0.4,1.5,1.3,1.5
		c0.6,0,1-0.2,1.2-0.7c0.3-0.5,0.4-1.3,0.4-2.4C1189.3,215.9,1189.2,215.3,1189,214.9z"/>
	<path class="st1" d="M1255.8,194.2c-0.1,0.1-0.2,0.4-0.2,0.8v1.7c1.3,0.3,2.3,0.9,3.1,1.7c0.8,0.8,1.2,1.8,1.2,2.9v11.9
		c0,3.8-1,6.5-3,8.3c-2,1.8-5.3,2.7-9.8,2.7s-7.8-0.9-9.8-2.7c-2-1.8-3-4.5-3-8.3v-11.5c0-1.2-0.5-1.9-1.6-2.2l-1.3-1.9V193
		c0-2.6,1.3-3.9,3.9-3.9h6.6v4.9h-4.9c-0.4,0-0.7,0.1-0.9,0.2c-0.1,0.1-0.2,0.4-0.2,0.8v1.7c1.2,0.3,2.2,0.9,3.1,1.7
		s1.2,1.8,1.2,2.9v3.6h13.9v-3.3c0-1.2-0.5-1.9-1.6-2.2l-1.3-1.9V193c0-2.6,1.3-3.9,3.9-3.9h6.5v4.9h-4.9
		C1256.3,194,1256,194,1255.8,194.2z M1252.4,217.9c1.1-0.9,1.6-2.3,1.6-4.2v-4.6h-13.9v4.6c0,2,0.5,3.4,1.6,4.2
		c1.1,0.9,2.9,1.3,5.4,1.3C1249.6,219.2,1251.3,218.7,1252.4,217.9z"/>
	<path class="st1" d="M1281.3,185.9v4.8c0,1.5-0.3,2.6-1,3.3s-1.8,1.1-3.2,1.1h-0.5c-0.1,0-0.5-0.2-1.3-0.5
		c-0.7-0.4-1.3-0.5-1.8-0.5c-0.4,0-0.7,0.1-0.9,0.2c-0.2,0.1-0.2,0.3-0.2,0.6v1.8c1.4,0.3,2.8,0.9,4.1,1.8c1.3,0.9,2,1.9,2,3.1v16.5
		c0,4.1-1.9,6.1-5.8,6.1c-4.1,0-6.1-2.4-6.1-7.3c0-2,0.4-3.5,1.3-4.5s2-1.6,3.5-1.6c0.3,0,0.7,0,1.2,0.1v-9c0-0.6-0.4-1.1-1.1-1.5
		s-1.5-0.6-2.2-0.8l-1.4-1.9v-5c0-2.3,1.2-3.4,3.5-3.4c1.2,0,2.3,0.3,3.3,0.8s1.5,0.8,1.7,0.8c0.1,0,0.2-0.1,0.2-0.2v-4.7H1281.3z
		 M1272.6,219.6c0.2-0.2,0.2-0.6,0.2-1v-4.2h-0.7c-0.6,0-1.1,0.2-1.4,0.6c-0.3,0.4-0.4,1-0.4,1.8c0,1.1,0.1,1.9,0.3,2.4
		c0.2,0.5,0.6,0.8,1.1,0.8C1272.2,219.9,1272.4,219.8,1272.6,219.6z"/>
	<path class="st1" d="M1277.9,174.8c2.5,1.6,4.6,3.9,6.3,6.7l-1.2,2.8h-15c-1.9,0-3.4-0.5-4.5-1.4c-1-1-1.6-2.2-1.6-3.8
		c0-2,0.7-3.6,2.1-4.8c1.4-1.3,3.4-1.9,5.8-1.9C1272.8,172.3,1275.4,173.1,1277.9,174.8z M1278.7,180.5c-2.9-2.5-5.7-3.8-8.5-3.8
		c-1.1,0-1.9,0.2-2.4,0.6c-0.6,0.4-0.8,1-0.8,1.7c0,1,0.5,1.4,1.6,1.4H1278.7z"/>
	<path class="st1" d="M1305.9,207.2c2.5,0.4,4.7,0.7,6.5,0.7l1.9,1.9v6.2c0,2.6-0.6,4.6-1.9,6c-1.3,1.4-3.2,2.1-5.7,2.1
		c-1.7,0-3.1-0.3-4.3-0.9c-1.2-0.6-2.4-1.4-3.7-2.5c-0.9-0.7-1.6-1.3-2.2-1.6s-1.2-0.6-2-0.6v5.4h-5.7v-11.9h5.7v1.8
		c1.4,0.1,2.7,0.4,3.7,0.9c1,0.5,2.2,1.3,3.4,2.3c0.9,0.7,1.7,1.3,2.3,1.6c0.6,0.4,1.3,0.5,2,0.5c0.9,0,1.5-0.2,1.9-0.6
		c0.4-0.4,0.6-1.1,0.6-2v-4.4c-4.9-0.5-8.8-1.4-11.7-2.7c-2.6-1.1-4.6-2.6-6.1-4.3s-2.2-3.8-2.2-6.3c0-6.5,4.3-9.8,13-9.8
		c4.4,0,7.7,0.8,9.9,2.3c2.2,1.5,3.3,3.9,3.3,7.1c0,1.6-0.4,3-1.1,4.2c-0.8,1.1-1.7,2-2.9,2.6l-3.1-2.4v-1.2
		c0.5-0.4,0.8-0.9,0.9-1.4c0.2-0.5,0.2-1.1,0.2-1.7c0-1.6-0.6-2.7-1.8-3.5c-1.2-0.8-3.1-1.1-5.5-1.1c-2.4,0-4.1,0.4-5.3,1.3
		c-1.2,0.8-1.8,2.1-1.8,3.7c0,2.7,1.6,4.8,4.9,6.4C1301.2,206.1,1303.4,206.7,1305.9,207.2z"/>
	<path class="st1" d="M1307.6,174.7c2.7,1.6,5,3.9,6.8,6.8l-1.3,2.8h-18.2c-2,0-3.5-0.4-4.6-1.3c-1.1-0.9-1.6-2.1-1.6-3.7
		c0-2,0.9-3.7,2.6-5c1.8-1.3,4.2-2,7.2-2C1301.9,172.3,1304.9,173.1,1307.6,174.7z M1308.5,180.4c-1.5-1.2-3.1-2.1-4.7-2.7
		c-1.6-0.6-3.3-0.9-5.2-0.9c-1.5,0-2.6,0.3-3.4,0.8c-0.8,0.5-1.1,1.1-1.1,1.8c0,0.7,0.4,1.1,1.2,1.1H1308.5z"/>
	<path class="st1" d="M1335,212.1c0.9,1,1.3,2.5,1.3,4.5c0,4.9-2,7.3-6.1,7.3c-1.9,0-3.4-0.5-4.4-1.6c-1-1-1.5-2.6-1.5-4.6v-16.2
		c0-1.2-0.5-1.9-1.6-2.2l-1.3-1.9V193c0-2.6,1.3-3.9,3.9-3.9h6.6v4.9h-4.9c-0.4,0-0.7,0.1-0.9,0.2c-0.1,0.1-0.2,0.4-0.2,0.8v1.7
		c1.2,0.3,2.2,0.9,3.1,1.7s1.2,1.8,1.2,2.9v9.4c0.6-0.1,1-0.1,1.2-0.1C1333,210.6,1334.2,211.1,1335,212.1z M1332,219.2
		c0.2-0.5,0.3-1.3,0.3-2.4c0-0.9-0.1-1.5-0.4-1.8c-0.3-0.4-0.7-0.6-1.4-0.6h-0.7v4.2c0,0.5,0.1,0.8,0.3,1c0.2,0.2,0.5,0.3,0.9,0.3
		C1331.5,219.9,1331.8,219.7,1332,219.2z"/>
	<path class="st1" d="M1401.8,191.7c1.9,1.8,2.8,4.5,2.8,8.3v23.7h-5.9V200c0-2.1-0.5-3.6-1.4-4.6c-0.9-1-2.5-1.4-4.6-1.4h-9
		c-0.4,0-0.7,0.1-0.9,0.2c-0.1,0.1-0.2,0.4-0.2,0.8v1.7c1.2,0.3,2.2,0.9,3,1.6c0.8,0.8,1.2,1.7,1.3,2.7v12.1c0,3.8-1,6.5-2.9,8.3
		c-1.9,1.8-5,2.7-9.1,2.7c-4.5,0-7.7-1.2-9.7-3.6c-1,1.2-2.4,2.1-3.9,2.7s-3.6,0.9-5.9,0.9c-4.2,0-7.3-0.9-9.3-2.7
		c-1.9-1.8-2.9-4.6-2.9-8.3v-18.3c0-1.9,0.5-3.3,1.6-4.3c1.1-1,2.7-1.5,4.7-1.5c2.1,0,3.7,0.6,4.8,1.7c1.1,1.1,1.6,2.7,1.6,4.9
		c0,2.1-0.5,3.8-1.5,4.9c-1,1.2-2.4,1.8-4,1.8c-0.4,0-0.9-0.1-1.3-0.2v11.6c0,2,0.5,3.4,1.6,4.3c1,0.9,2.7,1.3,5,1.3
		c2.2,0,3.9-0.5,4.9-1.4s1.6-2.3,1.6-4.2v-12c0-1.2-0.5-1.9-1.6-2.2l-1.3-1.9V193c0-2.6,1.3-3.9,3.9-3.9h6.6v4.9h-4.9
		c-0.4,0-0.7,0.1-0.9,0.2c-0.1,0.1-0.2,0.4-0.2,0.8v1.7c1.2,0.3,2.2,0.9,3,1.6c0.8,0.8,1.2,1.7,1.3,2.7v12.6c0,1.9,0.5,3.3,1.6,4.2
		c1.1,0.9,2.7,1.4,4.8,1.4c2.3,0,3.9-0.4,4.9-1.3c1-0.9,1.5-2.3,1.5-4.3v-12c0-1.2-0.5-1.9-1.6-2.2l-1.3-1.9V193
		c0-2.6,1.3-3.9,3.9-3.9h10.7C1396.8,189.1,1399.9,190,1401.8,191.7z M1349.1,193.4c-0.3,0.3-0.4,0.7-0.4,1.2v4h1c1.4,0,2-1,2-3
		c0-1.7-0.5-2.6-1.6-2.6C1349.7,192.9,1349.4,193.1,1349.1,193.4z"/>
	<path class="st1" d="M1440.6,189.1v4.9h-26.3v-4.9H1440.6z M1437.3,200.3c2,1.8,3,4.5,3,8.3v15.1h-5.9v-15.6c0-2-0.5-3.4-1.6-4.3
		c-1.1-0.9-2.9-1.3-5.3-1.3c-2.5,0-4.3,0.4-5.4,1.3c-1.1,0.9-1.6,2.3-1.6,4.3v5.3c2-2,4.4-3,7-3h0.9l0.9,0.9l-0.7,3.3h-1.4
		c-2.5,0-4.8,1.3-6.7,3.9v5.2h-5.9v-15.1c0-3.8,1-6.6,3-8.3c2-1.8,5.3-2.7,9.8-2.7S1435.3,198.6,1437.3,200.3z"/>
	<path class="st1" d="M1449.4,223.1c-0.6-0.6-0.9-1.5-0.9-2.6c0-1.1,0.3-1.9,0.9-2.5c0.6-0.6,1.4-0.9,2.5-0.9c1.1,0,1.9,0.3,2.5,0.9
		c0.6,0.6,0.9,1.4,0.9,2.5c0,1.1-0.3,2-0.9,2.6c-0.6,0.6-1.4,0.9-2.5,0.9C1450.9,224.1,1450,223.7,1449.4,223.1z M1455.2,183.2
		l-0.8,29.8h-4.8l-0.8-29.8H1455.2z"/>
</g>
</svg>
